<?xml version="1.0" encoding="iso-8859-1"?>
<!-- Generator: Adobe Illustrator 19.0.0, SVG Export Plug-In . SVG Version: 6.00 Build 0)  -->
<svg xmlns="http://www.w3.org/2000/svg" xmlns:xlink="http://www.w3.org/1999/xlink" version="1.1" id="Layer_1" x="0px" y="0px" viewBox="0 0 502.001 502.001" style="enable-background:new 0 0 502.001 502.001;" xml:space="preserve" width="512px" height="512px">
<g>
	<g>
		<g>
			<path d="M200.941,143.807c-19.051,12.139-30.425,32.857-30.425,55.421v15.622c0,5.523,4.477,10,10,10s10-4.477,10-10v-15.622     c0-15.694,7.915-30.107,21.172-38.554c4.658-2.968,6.028-9.149,3.06-13.807S205.6,140.838,200.941,143.807z" fill="#000000"/>
			<path d="M256.259,133.554H236.19c-5.523,0-10,4.477-10,10c0,5.523,4.477,10,10,10h20.069c5.523,0,10-4.477,10-10     C266.259,138.031,261.782,133.554,256.259,133.554z" fill="#000000"/>
			<path d="M391.082,29.12h-85.396v-7.07c0-12.158-9.892-22.05-22.05-22.05h-66.275c-12.158,0-22.05,9.892-22.05,22.05v7.071     h-84.392c-5.523,0-10,4.477-10,10c0,5.523,4.477,10,10,10h84.392v9.08c0,12.158,9.892,22.05,22.05,22.05h1.046v22.594     c-45.285,7.86-79.831,47.437-79.831,94.935v187.779c0,5.523,4.477,10,10,10h56.777v84.392c0,12.158,9.892,22.05,22.05,22.05     h46.192c12.158,0,22.05-9.892,22.05-22.05v-84.392l56.777-0.001c5.523,0,10-4.477,10-10V197.779     c0-47.498-34.546-87.075-79.832-94.935V80.25h1.046c12.159,0,22.05-9.892,22.05-22.05v-9.08h85.396c5.523,0,10-4.477,10-10     S396.605,29.12,391.082,29.12z M275.645,479.95c0,1.111-0.938,2.05-2.05,2.05h-46.192c-1.111,0-2.05-0.938-2.05-2.05v-84.392     h50.292V479.95z M291.712,375.558L291.712,375.558h-82.426V251.985c0-3.823,3.461-7.052,7.559-7.052h67.308     c4.097,0,7.559,3.229,7.559,7.052V375.558z M342.422,197.779v177.779h-30.71V251.985c0-14.917-12.363-27.052-27.559-27.052     h-67.308c-15.196,0-27.559,12.136-27.559,27.052v123.573h-30.71V197.779c0-42.104,34.254-76.358,76.358-76.358h31.129     C308.168,121.421,342.422,155.675,342.422,197.779z M238.407,101.421V80.25h24.183v21.171H238.407z M283.637,60.25h-11.046     h-44.183h-11.047c-1.111,0-2.05-0.938-2.05-2.05V22.05c0-1.111,0.938-2.05,2.05-2.05h66.275c1.111,0,2.05,0.938,2.05,2.05V58.2     h0.001C285.687,59.311,284.748,60.25,283.637,60.25z" fill="#000000"/>
			<path d="M266.565,30.125h-32.133c-5.523,0-10,4.477-10,10s4.477,10,10,10h32.133c5.523,0,10-4.477,10-10     S272.088,30.125,266.565,30.125z" fill="#000000"/>
		</g>
	</g>
</g>
<g>
</g>
<g>
</g>
<g>
</g>
<g>
</g>
<g>
</g>
<g>
</g>
<g>
</g>
<g>
</g>
<g>
</g>
<g>
</g>
<g>
</g>
<g>
</g>
<g>
</g>
<g>
</g>
<g>
</g>
</svg>
