<?xml version="1.0" encoding="iso-8859-1"?>
<!-- Generator: Adobe Illustrator 19.0.0, SVG Export Plug-In . SVG Version: 6.00 Build 0)  -->
<svg xmlns="http://www.w3.org/2000/svg" xmlns:xlink="http://www.w3.org/1999/xlink" version="1.1" id="Layer_1" x="0px" y="0px" viewBox="0 0 502 502" style="enable-background:new 0 0 502 502;" xml:space="preserve" width="512px" height="512px">
<g>
	<g>
		<g>
			<path d="M104.261,276.5c-22.089,0-40.06,17.971-40.06,40.06s17.971,40.059,40.06,40.059s40.06-17.97,40.06-40.059     S126.35,276.5,104.261,276.5z M104.261,336.618c-11.061,0-20.06-8.999-20.06-20.059c0-11.061,8.999-20.06,20.06-20.06     c11.061,0,20.06,8.999,20.06,20.06C124.32,327.62,115.321,336.618,104.261,336.618z" fill="#000000"/>
			<path d="M397.997,276.5c-22.089,0-40.06,17.971-40.06,40.06s17.971,40.059,40.06,40.059s40.06-17.97,40.06-40.059     S420.086,276.5,397.997,276.5z M397.997,336.618c-11.061,0-20.06-8.999-20.06-20.059c0-11.061,8.999-20.06,20.06-20.06     c11.061,0,20.06,8.999,20.06,20.06C418.057,327.62,409.058,336.618,397.997,336.618z" fill="#000000"/>
			<path d="M264.874,97.146c0-5.523-4.478-10-10-10H103.977c-5.522,0-10,4.477-10,10c0,5.523,4.478,10,10,10h150.897     C260.396,107.146,264.874,102.669,264.874,97.146z" fill="#000000"/>
			<path d="M287.878,107.146h15.309c5.522,0,10-4.477,10-10c0-5.523-4.478-10-10-10h-15.309c-5.522,0-10,4.477-10,10     C277.878,102.669,282.355,107.146,287.878,107.146z" fill="#000000"/>
			<path d="M302.703,351.269H199.297c-5.522,0-10,4.477-10,10s4.478,10,10,10h103.406c5.522,0,10-4.477,10-10     S308.226,351.269,302.703,351.269z" fill="#000000"/>
			<path d="M492,166.089h-43.596v-63.405c0-27.821-22.635-50.456-50.456-50.456h-70.265l-8.422-37.898     c-1.016-4.575-5.074-7.83-9.761-7.83h-117c-4.687,0-8.745,3.255-9.762,7.831l-8.422,37.898h-70.265     c-27.821,0-50.456,22.635-50.456,50.456v63.405H10c-5.522,0-10,4.477-10,10v38.818c0,5.523,4.478,10,10,10h11.51     c-8.358,9.834-13.417,22.556-13.417,36.443v136.566c0,5.523,4.478,10,10,10h14.089v45.034c0,23.462,19.088,42.55,42.55,42.55     h8.347c23.462,0,42.55-19.088,42.55-42.55v-45.034h246.565v45.034c0,23.462,19.088,42.55,42.551,42.55h8.346     c23.462,0,42.55-19.088,42.55-42.55v-45.034h18.266c5.522,0,10-4.477,10-10V261.349c0-13.887-5.059-26.608-13.417-36.443H492     c5.522,0,10-4.477,10-10v-38.818C502,170.565,497.522,166.089,492,166.089z M200.521,26.5h100.957l5.556,25H194.966L200.521,26.5     z M73.596,102.685c0-16.793,13.662-30.456,30.456-30.456h293.896c16.794,0,30.456,13.663,30.456,30.456v102.303h-89.186     l49.69-14.907c5.29-1.587,8.292-7.162,6.705-12.452c-1.587-5.29-7.16-8.292-12.451-6.705l-111.369,33.411     c-0.568,0.17-1.104,0.395-1.617,0.653h-91.051l49.69-14.907c5.29-1.587,8.292-7.162,6.705-12.452     c-1.587-5.29-7.16-8.292-12.451-6.705L111.7,204.335c-0.568,0.17-1.104,0.395-1.617,0.653H73.596V102.685z M20,204.906v-18.818     h33.516v18.818H20z M83.079,475.5h-8.347c-12.434,0-22.55-10.116-22.55-22.55v-44.795h53.446v44.795h0.001     C105.629,465.383,95.513,475.5,83.079,475.5z M423.091,475.5h-8.346c-12.435,0-22.551-10.116-22.551-22.55v-44.795h53.446v44.795     h0.001C445.641,465.383,435.525,475.5,423.091,475.5z M473.906,387.917H28.094V261.349c0-20.05,16.313-36.362,36.362-36.362     h373.088c20.05,0,36.362,16.312,36.362,36.362V387.917z M482,204.906h-33.516v-18.818H482V204.906z" fill="#000000"/>
		</g>
	</g>
</g>
<g>
</g>
<g>
</g>
<g>
</g>
<g>
</g>
<g>
</g>
<g>
</g>
<g>
</g>
<g>
</g>
<g>
</g>
<g>
</g>
<g>
</g>
<g>
</g>
<g>
</g>
<g>
</g>
<g>
</g>
</svg>
