<?xml version="1.0" encoding="iso-8859-1"?>
<!-- Generator: Adobe Illustrator 19.0.0, SVG Export Plug-In . SVG Version: 6.00 Build 0)  -->
<svg xmlns="http://www.w3.org/2000/svg" xmlns:xlink="http://www.w3.org/1999/xlink" version="1.1" id="Layer_1" x="0px" y="0px" viewBox="0 0 502 502" style="enable-background:new 0 0 502 502;" xml:space="preserve" width="512px" height="512px">
<g>
	<g>
		<g>
			<path d="M113.627,198.035h117.591c5.523,0,10-4.477,10-10V48.464c0-5.523-4.477-10-10-10H113.627c-5.523,0-10,4.477-10,10v139.57     C103.627,193.558,108.104,198.035,113.627,198.035z M123.627,58.464h97.591v119.57h-97.591V58.464z" fill="#000000"/>
			<path d="M388.373,38.464H270.782c-5.523,0-10,4.477-10,10v139.57c0,5.523,4.477,10,10,10h117.591c5.523,0,10-4.477,10-10V48.464     C398.373,42.941,393.896,38.464,388.373,38.464z M378.373,178.035h-97.591V58.464h97.591V178.035z" fill="#000000"/>
			<path d="M136.157,262.5c-17.937,0-32.529,14.593-32.529,32.529c0,17.936,14.593,32.529,32.529,32.529     c17.936,0,32.529-14.592,32.529-32.529C168.686,277.092,154.093,262.5,136.157,262.5z M136.157,307.558     c-6.909,0-12.529-5.621-12.529-12.529c0-6.909,5.621-12.529,12.529-12.529c6.908,0,12.529,5.621,12.529,12.529     C148.686,301.938,143.065,307.558,136.157,307.558z" fill="#000000"/>
			<path d="M365.843,262.5c-17.937,0-32.529,14.593-32.529,32.529c0,17.936,14.592,32.529,32.529,32.529     c17.937,0,32.529-14.592,32.529-32.529C398.372,277.092,383.78,262.5,365.843,262.5z M365.843,307.558     c-6.908,0-12.529-5.621-12.529-12.529c0-6.909,5.621-12.529,12.529-12.529c6.909,0,12.529,5.621,12.529,12.529     C378.373,301.938,372.752,307.558,365.843,307.558z" fill="#000000"/>
			<path d="M497.472,484.929L384.313,371.674h41.975c5.523,0,10-4.477,10-10V44.893C436.288,20.139,416.149,0,391.395,0h-280.79     C85.851,0,65.712,20.139,65.712,44.893v316.781c0,5.523,4.477,10,10,10h41.975L4.529,484.929     c-2.86,2.86-3.715,7.162-2.167,10.898C3.909,499.563,7.556,502,11.6,502h478.8c4.044,0,7.691-2.437,9.239-6.173     C501.187,492.091,500.331,487.789,497.472,484.929z M85.712,351.674V44.893C85.712,31.167,96.879,20,110.605,20h280.79     c13.726,0,24.893,11.167,24.893,24.893v306.781H85.712z M363.14,378.786H138.86l7.112-7.112h210.056L363.14,378.786z      M118.956,398.785h264.088l15.073,15.073H103.883L118.956,398.785z M83.787,433.858h334.426l13.069,13.069H70.718L83.787,433.858     z M35.742,482l15.073-15.073h400.37L466.258,482H35.742z" fill="#000000"/>
			<path d="M340,225.5c0-5.523-4.477-10-10-10H115c-5.523,0-10,4.477-10,10s4.477,10,10,10h215C335.523,235.5,340,231.023,340,225.5     z" fill="#000000"/>
			<path d="M386,235.5c5.523,0,10-4.477,10-10s-4.477-10-10-10h-22c-5.523,0-10,4.477-10,10s4.477,10,10,10H386z" fill="#000000"/>
			<path d="M201,67.5h-57c-5.523,0-10,4.477-10,10s4.477,10,10,10h57c5.523,0,10-4.477,10-10S206.523,67.5,201,67.5z" fill="#000000"/>
			<path d="M301,87.5h57c5.523,0,10-4.477,10-10s-4.477-10-10-10h-57c-5.523,0-10,4.477-10,10S295.477,87.5,301,87.5z" fill="#000000"/>
		</g>
	</g>
</g>
<g>
</g>
<g>
</g>
<g>
</g>
<g>
</g>
<g>
</g>
<g>
</g>
<g>
</g>
<g>
</g>
<g>
</g>
<g>
</g>
<g>
</g>
<g>
</g>
<g>
</g>
<g>
</g>
<g>
</g>
</svg>
