<svg xmlns="http://www.w3.org/2000/svg" width="20" height="19" viewBox="0 0 20 19">
  <defs>
    <style>
      .cls-1 {
      fill: transparent;
      fill-rule: evenodd;
      stroke-dasharray: 120;
      stroke-dashoffset: 120;
      animation: dash 1.5s linear forwards;
      animation-delay: 500ms;
      stroke: #fff;
      }
      @keyframes dash {
      from{
      fill: transparent;
      stroke: #fff;
      }
      to {
      fill: #fff;
      stroke-dashoffset: 0;
      stroke: transparent;
      }
    </style>
  </defs>
  <path id="accounts.svg" class="cls-1" d="M540,319v1l2,0.213,2-.213v-1h4v1s-0.445.213,0,0c0.974-.049,4.022-1.989,4-6v-1a1.087,1.087,0,0,0-1-1H533a1.231,1.231,0,0,0-1,1.138V314c0,4.016,3.125,6,4,6h0v-1h4Zm4,4v-2l-2,.106L540,321v2h-4v-2h0a5.328,5.328,0,0,1-4-3.081V326a1.088,1.088,0,0,0,1,1h18a1.088,1.088,0,0,0,1-1v-8.081A5.328,5.328,0,0,1,548,321h0v2h-4Zm1-3h2v2h-2v-2Zm-8,0h2v2h-2v-2Zm1-9v-2h8v2l1,0.014V309a0.969,0.969,0,0,0-.93-1h-8.134a0.97,0.97,0,0,0-.93,1v2.011Z" transform="translate(-532 -308)"/>
</svg>
