<?xml version="1.0" encoding="UTF-8"?>
<svg width="40px" height="40px" viewBox="0 0 40 40" version="1.1" xmlns="http://www.w3.org/2000/svg" xmlns:xlink="http://www.w3.org/1999/xlink">
    <!-- Generator: Sketch 49.3 (51167) - http://www.bohemiancoding.com/sketch -->
    <title>icon/system/audittrail/dark</title>
    <desc>Created with Sketch.</desc>
    <defs></defs>
    <g id="icon/system/audittrail/dark" stroke="none" stroke-width="1" fill="none" fill-rule="evenodd">
        <g id="Group" transform="translate(4.000000, 7.000000)" fill="#ffffff" fill-rule="nonzero">
            <path d="M9.73731343,24.5596206 L30.5432836,24.5596206 L30.5432836,15.7181572 L9.73731343,15.7181572 L9.73731343,24.5596206 Z M12.2746269,18.1741192 L18.1104478,18.1741192 C18.5308436,18.1741192 18.8716418,18.5039907 18.8716418,18.9109079 C18.8716418,19.317825 18.5308436,19.6476965 18.1104478,19.6476965 L12.2746269,19.6476965 C11.854231,19.6476965 11.5134328,19.317825 11.5134328,18.9109079 C11.5134328,18.5039907 11.854231,18.1741192 12.2746269,18.1741192 Z M12.2746269,21.1212737 L23.1850746,21.1212737 C23.6054705,21.1212737 23.9462687,21.4511452 23.9462687,21.8580623 C23.9462687,22.2649794 23.6054705,22.5948509 23.1850746,22.5948509 L12.2746269,22.5948509 C11.854231,22.5948509 11.5134328,22.2649794 11.5134328,21.8580623 C11.5134328,21.4511452 11.854231,21.1212737 12.2746269,21.1212737 Z M2.63880597,1.27710027 C4.09617827,1.27710027 5.27761194,2.42065481 5.27761194,3.83130081 C5.27761194,5.24194682 4.09617827,6.38550136 2.63880597,6.38550136 C1.18143368,6.38550136 0,5.24194682 0,3.83130081 C0,2.42065481 1.18143368,1.27710027 2.63880597,1.27710027 Z M2.63880597,17.5846883 C4.09617827,17.5846883 5.27761194,18.7282429 5.27761194,20.1388889 C5.27761194,21.5495349 4.09617827,22.6930894 2.63880597,22.6930894 C1.18143368,22.6930894 0,21.5495349 0,20.1388889 C0,18.7282429 1.18143368,17.5846883 2.63880597,17.5846883 Z M25.4686567,8.84146341 L9.73731343,8.84146341 L9.73731343,0 L25.4686567,0 L25.4686567,8.84146341 Z M12.2746269,2.45596206 C11.854231,2.45596206 11.5134328,2.78583356 11.5134328,3.19275068 C11.5134328,3.5996678 11.854231,3.9295393 12.2746269,3.9295393 L18.1104478,3.9295393 C18.5308436,3.9295393 18.8716418,3.5996678 18.8716418,3.19275068 C18.8716418,2.78583356 18.5308436,2.45596206 18.1104478,2.45596206 L12.2746269,2.45596206 Z M12.2746269,5.40311653 C11.854231,5.40311653 11.5134328,5.73298803 11.5134328,6.13990515 C11.5134328,6.54682227 11.854231,6.87669377 12.2746269,6.87669377 L23.1850746,6.87669377 C23.6054705,6.87669377 23.9462687,6.54682227 23.9462687,6.13990515 C23.9462687,5.73298803 23.6054705,5.40311653 23.1850746,5.40311653 L12.2746269,5.40311653 Z M3.09552239,7.07317073 L3.09552239,16.700542 L2.08059701,16.700542 L2.08059701,7.12228997 L3.09552239,7.07317073 Z" id="Combined-Shape"></path>
        </g>
    </g>
</svg>