<?xml version="1.0" encoding="UTF-8"?>
<svg width="40px" height="40px" viewBox="0 0 40 40" version="1.1" xmlns="http://www.w3.org/2000/svg" xmlns:xlink="http://www.w3.org/1999/xlink">
    <!-- Generator: Sketch 48.2 (47327) - http://www.bohemiancoding.com/sketch -->
    <title>icon/system/leaderboard/light</title>
    <desc>Created with Sketch.</desc>
    <defs></defs>
    <g id="Symbols" stroke="none" stroke-width="1" fill="none" fill-rule="evenodd">
        <g id="icon/system/leaderboard/light" fill="#FFFFFF" fill-rule="nonzero">
            <path d="M22.6399231,13.3283668 C22.6393454,14.5459929 21.5314934,15.6538449 20.3144451,15.6538449 C19.096819,15.6538449 17.988967,14.5468595 17.988967,13.3283668 C17.9883893,12.110163 19.0965301,11 20.3144451,11 C21.5326489,11 22.6399231,12.1090075 22.6399231,13.3283668 Z M17.752086,16.5768141 L19.4564737,16.577103 C19.455607,16.5860582 19.455607,16.5953024 19.4564737,16.6042576 L19.9802118,19.1501506 C19.5986023,19.2983456 19.3027899,19.6839994 19.3030788,20.0979634 C19.3033677,20.6271902 19.7849294,21.1090408 20.3141562,21.1090408 C20.843383,21.1090408 21.3249447,20.6271902 21.3252336,20.0979634 C21.3255225,19.6839994 21.0297101,19.2983456 20.6481006,19.1501506 L21.1718387,16.6042576 C21.1727054,16.5953024 21.1727054,16.5860582 21.1718387,16.577103 L22.8690044,16.577103 C24.0282768,16.577103 24.9723343,17.5130718 24.9723343,18.6714776 C24.9723343,18.8017622 24.9604902,18.931469 24.9373799,19.0574203 L23.2211482,27.7786852 C23.0356877,28.657167 22.1707832,29.3675211 21.190327,29.3675211 L19.4397187,29.3675211 C18.4595513,29.3675211 17.625268,28.7030988 17.4088975,27.7786852 L15.6883326,19.0574203 C15.6675333,18.931469 15.6577114,18.8017622 15.6577114,18.6711887 C15.6577114,17.5116274 16.5936802,16.5768141 17.752086,16.5768141 Z M19.738131,16.5768141 L20.893648,16.5768141 L20.379154,19.0955524 C20.3580658,19.094108 20.3369777,19.0865971 20.3158895,19.0865971 C20.2948013,19.0865971 20.2737131,19.094108 20.2526249,19.0955524 L19.738131,16.5768141 Z M31.3640768,18.8994034 C31.3632101,20.0315212 30.3336444,21.060798 29.2015266,21.060798 C28.0694088,21.060798 27.0395542,20.0315212 27.0389765,18.8994034 C27.0383987,17.7667078 28.068831,16.7356977 29.2015266,16.7356977 C30.3342222,16.7356977 31.3646545,17.7667078 31.3640768,18.8994034 Z M27.348655,21.9213693 L28.3689766,21.9210804 L28.86556,24.3043343 C28.4839505,24.4525294 28.1881382,24.8381832 28.1884271,25.2521472 C28.1887159,25.781374 28.6702777,26.2632246 29.1995045,26.2632246 C29.7287313,26.2632246 30.210293,25.781374 30.2105819,25.2521472 C30.2108707,24.8381832 29.9150584,24.4525294 29.5334489,24.3043343 L30.0300323,21.9210804 L31.050065,21.9210804 C32.1275846,21.9210804 33,22.792918 33,23.8710154 C33,23.9923447 32.9884448,24.1125185 32.9670678,24.2292257 L32.2324478,27.8974145 C32.0388987,28.7568303 31.2574803,29.3689655 30.3457774,29.3689655 L28.0526538,29.3689655 C27.1409509,29.3689655 26.3445107,28.7568303 26.1659834,27.8974145 L25.4316523,24.2295146 C25.4099863,24.1128074 25.39872,23.9926336 25.39872,23.8713043 C25.39872,22.7937847 26.2705576,21.9213693 27.348655,21.9213693 Z M28.657567,21.9213693 L29.7408642,21.9213693 L29.2624801,24.2497361 C29.241392,24.2482917 29.2203038,24.2407809 29.1992156,24.2407809 C29.1781274,24.2407809 29.1570392,24.2482917 29.135951,24.2497361 L28.657567,21.9213693 Z M8.78094064,17.1580392 C8.78036288,16.0253436 9.8107952,14.9943335 10.9434908,14.9943335 C12.0761863,14.9943335 13.1069075,16.0253436 13.1060409,17.1580392 C13.1054632,18.290157 12.0756086,19.3194338 10.9434908,19.3194338 C9.81137295,19.3194338 8.78151839,18.290157 8.78094064,17.1580392 Z M8.949935,20.1794274 L10.1149851,20.1794274 L10.6115685,22.5626812 C10.229959,22.7108763 9.93414664,23.0965301 9.93443552,23.5104941 C9.9347244,24.0397209 10.4162861,24.5215715 10.9455129,24.5215715 C11.4747397,24.5215715 11.9563015,24.0397209 11.9565903,23.5104941 C11.9568792,23.0965301 11.6610669,22.7108763 11.2794574,22.5626812 L11.7760408,20.1794274 L12.9402242,20.1794274 C14.0177439,20.1794274 14.8901592,21.051265 14.8901592,22.1293624 C14.8901592,22.2506916 14.878604,22.3708654 14.857227,22.4875726 L13.9784563,27.8979923 C13.7967512,28.7574081 13.0034888,29.3695432 12.0917858,29.3695432 L9.79866227,29.3695432 C8.88695932,29.3695432 8.06307568,28.7042543 7.91199182,27.8979923 L7.03293224,22.4875726 C7.01126629,22.3708654 7,22.2506916 7,22.1293624 C7,21.0518427 7.87183761,20.1794274 8.949935,20.1794274 Z M10.4029977,20.1794274 L11.4862949,20.1794274 L11.0079108,22.5077942 C10.9868227,22.5063498 10.9657345,22.4988389 10.9446463,22.4988389 C10.9235581,22.4988389 10.9024699,22.5063498 10.8813817,22.5077942 L10.4029977,20.1794274 Z" id="Combined-Shape-Copy"></path>
        </g>
    </g>
</svg>