<?xml version="1.0" encoding="UTF-8"?>
<svg width="96px" height="96px" viewBox="0 0 96 96" version="1.1" xmlns="http://www.w3.org/2000/svg" xmlns:xlink="http://www.w3.org/1999/xlink">
    <!-- Generator: Sketch 44.1 (41455) - http://www.bohemiancoding.com/sketch -->
    <title>mis@1x</title>
    <desc>Created with Sketch.</desc>
    <defs></defs>
    <g id="Page-1" stroke="none" stroke-width="1" fill="none" fill-rule="evenodd">
        <g id="mis" fill="#FFFFFF">
            <path d="M52.705976,51.2269572 C52.427064,51.2259337 52.159212,51.3391917 51.9614921,51.5417532 C51.7637722,51.7443148 51.6524257,52.0195408 51.6520091,52.306733 L51.6520091,79.8248959 C51.6526336,80.1118179 51.7641162,80.3866907 51.9618535,80.5888516 C52.1595908,80.7910125 52.4273275,80.9038426 52.705976,80.9024412 L62.2982166,80.9024412 C62.5770241,80.9039506 62.8449634,80.7912003 63.0429423,80.5890568 C63.2409212,80.3869133 63.3526767,80.1119815 63.3535619,79.8248959 L63.3535619,52.306733 C63.3528325,52.0194494 63.2411775,51.7442579 63.0432103,51.541822 C62.845243,51.3393861 62.5772171,51.2263262 62.2982166,51.2275655 L52.705976,51.2275655 L52.705976,51.2269572 Z" id="mis.svg-path"></path>
            <rect id="Rectangle" x="10" y="85" width="77" height="6" rx="3"></rect>
            <path d="M33.9823098,41.6002234 C33.7028368,41.6001694 33.4348067,41.7145166 33.2372633,41.9180757 C33.0397199,42.1216347 32.9288693,42.3977059 32.9291307,42.6854741 L32.9291307,79.8253015 C32.9293884,80.1121992 33.0406455,80.3871688 33.2382922,80.5893883 C33.435939,80.7916077 33.7036864,80.9044111 33.9823098,80.9028468 L43.5775044,80.9028468 C43.8560076,80.9042489 44.1235827,80.7913674 44.3210701,80.5891597 C44.5185575,80.386952 44.6296897,80.1120746 44.6298958,79.8253015 L44.6298958,42.6852714 C44.6301571,42.3976436 44.5194146,42.1216954 44.3220416,41.9181597 C44.1246686,41.714624 43.8568409,41.6001819 43.5775044,41.6000206 L33.9823098,41.6000206 L33.9823098,41.6002234 Z" id="mis.svg-path"></path>
            <path d="M15.2600222,53.153115 C14.9815914,53.1517123 14.714097,53.2646195 14.5167344,53.4668507 C14.3193719,53.6690818 14.2084151,53.9439617 14.2084185,54.2306603 L14.2084185,79.8253015 C14.2085204,80.1119667 14.3195108,80.3867835 14.5168504,80.5889911 C14.71419,80.7911988 14.9816233,80.904141 15.2600222,80.9028468 L24.8552167,80.9028468 C25.1337041,80.9041947 25.4012486,80.7912957 25.5987245,80.5890997 C25.7962005,80.3869038 25.9073495,80.1120579 25.9076082,79.8253015 L25.9076082,54.2306603 C25.9074546,53.9438705 25.7963393,53.6689615 25.5988404,53.4667421 C25.4013415,53.2645227 25.1337359,53.1516586 24.8552167,53.153115 L15.2600222,53.153115 Z" id="mis.svg-path"></path>
            <path d="M70.373509,38.717374 L70.373509,79.8253015 C70.373924,80.1122197 70.4852855,80.3871566 70.6829832,80.5893526 C70.8806809,80.7915486 71.1484382,80.9043566 71.427082,80.9028468 L81.0222766,80.9028468 C81.300832,80.9043029 81.5684779,80.7914517 81.7660393,80.589244 C81.9636006,80.3870363 82.0748036,80.1121285 82.0750619,79.8253015 L82.0750619,38.717374 C82.0757957,38.4295648 81.9651385,38.153314 81.7675664,37.9497254 C81.5699944,37.7461368 81.3017897,37.6319885 81.0222766,37.6325288 L71.427082,37.6325288 C71.1476411,37.632475 70.8796303,37.7467536 70.6820357,37.9502132 C70.4844411,38.1536728 70.3734568,38.4296387 70.373509,38.717374 Z" id="mis.svg-path"></path>
            <path d="M17.5908801,49.5129018 C17.8585088,49.8368546 18.2507058,50.0235779 18.6637522,50.0236915 C18.9964354,50.0249579 19.3182818,49.9019799 19.5696281,49.6775549 L38.7448536,33.0133188 L55.5653928,46.2407248 C56.1538478,46.7076821 56.9942101,46.6192456 57.4787601,46.0393694 L73.0151218,27.6075453 L75.191587,29.5444503 C75.5706703,29.8826376 76.0960844,29.987109 76.5701985,29.8185683 C77.0443127,29.6500276 77.3952226,29.2340358 77.4909362,28.727065 L80.084892,14.8846431 C80.1809049,14.3773352 80.0065332,13.8558465 79.6275648,13.5169277 C79.2485965,13.1780089 78.7227146,13.073247 78.2483272,13.2421672 L65.2883946,17.855294 C64.8142615,18.0223961 64.4630805,18.4377723 64.3676549,18.9443431 C64.2722293,19.4509139 64.4471242,19.9713602 64.826201,20.3088691 L67.0008938,22.2514517 L55.5019815,35.8961682 L39.3931457,23.224568 C38.8688772,22.8115587 38.1356564,22.8317536 37.6335803,23.2730312 L14.4342966,43.4304688 C14.1488818,43.6775992 13.9709167,44.0316879 13.9398066,44.4143321 C13.910455,44.7970558 14.0281967,45.1763478 14.2676943,45.4705861 L17.5908801,49.5129018 Z" id="mis.svg-path"></path>
        </g>
    </g>
</svg>