<?xml version="1.0" encoding="UTF-8"?>
<svg width="96px" height="96px" viewBox="0 0 96 96" version="1.1" xmlns="http://www.w3.org/2000/svg" xmlns:xlink="http://www.w3.org/1999/xlink">
    <!-- Generator: Sketch 44.1 (41455) - http://www.bohemiancoding.com/sketch -->
    <title>mis-icon</title>
    <desc>Created with Sketch.</desc>
    <defs></defs>
    <g id="Page-1" stroke="none" stroke-width="1" fill="none" fill-rule="evenodd">
        <g id="mis-icon" fill="#FFFFFF">
            <path d="M25.0697785,72.8757333 L51.6247821,72.8757333 C51.5844658,72.5546667 51.529677,72.2368 51.529677,71.904 L51.529677,67.2 L25.0697785,67.2 C23.5491303,67.2 22.32,68.4682667 22.32,70.0373333 C22.32,71.6085333 23.5491303,72.8757333 25.0697785,72.8757333 Z" id="Shape"></path>
            <path d="M25.0697785,82.4746667 L51.6247821,82.4746667 C51.5844658,82.1514667 51.529677,81.8346667 51.529677,81.5018667 L51.529677,76.8 L25.0697785,76.8 C23.5491303,76.8 22.32,78.0672 22.32,79.6352 C22.32,81.2085333 23.5491303,82.4746667 25.0697785,82.4746667 Z" id="Shape"></path>
            <path d="M23.86,55.1808 L36.1492356,55.1808 L36.1492356,24 C31.7930075,24.1152 27.1028779,26.544 23.86,28.6197333 L23.86,55.1808 Z" id="Shape"></path>
            <path d="M25.3809376,26.5386667 C27.0659523,26.5386667 28.4377402,25.1232 28.4377402,23.3834667 C28.4377402,23.2554667 28.4160315,23.1328 28.4005252,23.008 L35.8611084,20.3328 C36.3149252,21.4901333 37.4117354,22.3104 38.693587,22.3104 C39.9165148,22.3104 40.9657724,21.5605333 41.4547367,20.4874667 L51.8108573,26.7456 C51.7353935,27.0218667 51.6795709,27.3077333 51.6795709,27.6106667 C51.6795709,29.3493333 53.0492914,30.7637333 54.7363735,30.7637333 C56.2466842,30.7637333 57.4964895,29.6256 57.7425224,28.1376 L69.3184695,21.1957333 C69.8808302,21.872 70.70473,22.3104 71.6320049,22.3104 C73.3201208,22.3104 74.6919088,20.8949333 74.6919088,19.1552 C74.6919088,17.4144 73.3201208,16 71.6320049,16 C69.9459566,16 68.5741686,17.4144 68.5741686,19.1552 C68.5741686,19.312 68.5979448,19.4634667 68.6186199,19.6149333 L57.4995908,26.2816 C57.0126939,25.2053333 55.9613688,24.4533333 54.7353398,24.4533333 C53.9476213,24.4533333 53.2374341,24.7701333 52.6957485,25.2746667 L41.6966345,18.6293333 C41.4516355,17.1402667 40.2018301,16.0010667 38.6915195,16.0010667 C37.2029176,16.0010667 35.962416,17.104 35.6926069,18.56 L27.7440931,21.4090667 C27.1827662,20.6954667 26.3371576,20.2293333 25.3788701,20.2293333 C23.6907542,20.2293333 22.32,21.6437333 22.32,23.3834667 C22.32,25.1232 23.6928217,26.5386667 25.3809376,26.5386667 Z M71.6340724,17.7322667 C72.3969809,17.7322667 73.0151642,18.3712 73.0151642,19.1562667 C73.0151642,19.9413333 72.3969809,20.5792 71.6340724,20.5792 C70.875299,20.5792 70.2560819,19.9413333 70.2560819,19.1562667 C70.2560819,18.3712 70.8742652,17.7322667 71.6340724,17.7322667 Z M54.7374073,26.1866667 C55.4982483,26.1866667 56.1174653,26.8245333 56.1174653,27.6117333 C56.1174653,28.3946667 55.4982483,29.0336 54.7374073,29.0336 C53.9755326,29.0336 53.3583831,28.3946667 53.3583831,27.6117333 C53.3583831,26.8234667 53.9744988,26.1866667 54.7374073,26.1866667 Z M38.693587,17.7322667 C39.4544279,17.7322667 40.0715775,18.3712 40.0715775,19.1562667 C40.0715775,19.9413333 39.4533942,20.5792 38.693587,20.5792 C37.9317123,20.5792 37.313529,19.9413333 37.313529,19.1562667 C37.313529,18.3712 37.9317123,17.7322667 38.693587,17.7322667 Z M25.3809376,21.9605333 C26.1417786,21.9605333 26.7589281,22.5984 26.7589281,23.3834667 C26.7589281,24.1685333 26.1407448,24.8074667 25.3809376,24.8074667 C24.6190629,24.8074667 23.9998459,24.1685333 23.9998459,23.3834667 C23.9998459,22.5984 24.6190629,21.9605333 25.3809376,21.9605333 Z" id="Shape"></path>
            <path d="M57.74,32.6581333 L57.74,54.6794667 L70.0282018,54.6794667 L70.0282018,24 C66.3976672,24.8256 63.3625734,29.4901333 58.0801042,32.4885333 C57.9612228,32.5568 57.8557801,32.5962667 57.74,32.6581333 Z" id="Shape"></path>
            <path d="M40.8,25.6 L40.8,55.9850667 L53.0892356,55.9850667 L53.0892356,34.8245333 C49.7595226,34.0757333 47.5762398,29.6106667 41.6538786,26.0458667 C41.3757995,25.8794667 41.0894504,25.7312 40.8,25.6 Z" id="Shape"></path>
            <path d="M81.5014768,0 L15.5005907,0 C12.4654969,0 10,2.5408 10,5.67573333 L10,90.3253333 C10,93.4602667 12.4654969,96 15.5005907,96 L65.0017721,96 L87,73.2981333 L87,5.67573333 C87,2.5408 84.5427731,0 81.5014768,0 Z M65.0017721,87.9754667 L65.0017721,73.2981333 L79.2241227,73.2981333 L65.0017721,87.9754667 Z M81.5014768,67.6234667 L65.0017721,67.6234667 C61.9615095,67.6234667 59.5032489,70.1664 59.5032489,73.2970667 L59.5032489,90.3253333 L15.5005907,90.3253333 L15.5005907,5.67573333 L81.5014768,5.67573333 L81.5014768,67.6234667 L81.5014768,67.6234667 Z" id="Shape"></path>
        </g>
    </g>
</svg>