<svg xmlns="http://www.w3.org/2000/svg" width="26" height="30" viewBox="0 0 26 30">
  <defs>
    <style>
      .cls-1 {
        fill: #ffffff;
        fill-rule: evenodd;
      }
    </style>
  </defs>
  <path id="people_main.svg" class="cls-1" d="M2096.82,74.97l-2.12,10.9a2.846,2.846,0,0,1-2.67,2.066h-2.29a2.846,2.846,0,0,1-2.67-2.066l-2.12-10.9a2.822,2.822,0,0,1-.17-0.969,2.742,2.742,0,0,1,2.75-2.735h6.71A2.742,2.742,0,0,1,2096.99,74,2.818,2.818,0,0,1,2096.82,74.97Zm-5.93-4.908a3.031,3.031,0,1,1,3.05-3.029A3.156,3.156,0,0,1,2090.89,70.062Zm-12.87,6.065a3.031,3.031,0,1,1,3.05-3.029A3.156,3.156,0,0,1,2078.02,76.127Zm0,1.2a2.834,2.834,0,0,1,2.66,2.066q2.1,5.451,4.19,10.9a2.818,2.818,0,0,1,.17.969A2.742,2.742,0,0,1,2082.29,94h-8.55a2.742,2.742,0,0,1-2.75-2.735,2.822,2.822,0,0,1,.17-0.969q2.115-5.446,4.19-10.9A2.846,2.846,0,0,1,2078.02,77.329Zm0,0h0Z" transform="translate(-2071 -64)"/>
</svg>
