<?xml version="1.0" encoding="UTF-8"?>
<svg width="40px" height="40px" viewBox="0 0 40 40" version="1.1" xmlns="http://www.w3.org/2000/svg" xmlns:xlink="http://www.w3.org/1999/xlink">
    <!-- Generator: Sketch 48.2 (47327) - http://www.bohemiancoding.com/sketch -->
    <title>icon/system/roles/light</title>
    <desc>Created with Sketch.</desc>
    <defs></defs>
    <g id="Symbols" stroke="none" stroke-width="1" fill="none" fill-rule="evenodd">
        <g id="icon/system/roles/light" fill="#FFFFFF" fill-rule="nonzero">
            <path d="M26.1197298,33 C25.9774672,33 25.8340699,32.9661624 25.7034649,32.8973523 L20.3049166,30.0593231 L14.9063682,32.8973523 C14.6055433,33.0547798 14.2382811,33.0302269 13.9642787,32.8285422 C13.6879036,32.6291271 13.5503866,32.2886874 13.6075392,31.95289 L14.6382462,25.9410344 L10.2704049,21.6839907 C10.0267326,21.4460956 9.93811508,21.0904909 10.0441672,20.766351 C10.1490845,20.4422111 10.4289672,20.2054508 10.7671373,20.1565513 L16.8023079,19.2797643 L19.501582,13.8106521 C19.8047797,13.1997176 20.8051566,13.1997176 21.1083542,13.8106521 L23.8076284,19.2797643 L29.842799,20.1565513 C30.1809691,20.205554 30.4607486,20.4422111 30.5657691,20.766351 C30.6719244,21.0904909 30.5832037,21.4460956 30.3395314,21.6839907 L25.9716901,25.9410344 L27.0023971,31.95289 C27.0595497,32.2886874 26.9219295,32.6291271 26.6455544,32.8285422 C26.4904996,32.9428474 26.3051147,33 26.1197298,33 Z M24.6574897,16.2458276 L23.716535,16.2458276 C23.3760953,16.2458276 23.0647477,16.0528086 22.9143353,15.7473414 L22.2135453,14.3300806 C21.7599352,13.4474133 21.7972804,13.0370287 23.015745,13.0375445 L24.6574897,13.0375445 C25.1518494,13.0375445 25.3046346,13.4386444 25.3046346,13.9330041 L25.3046346,15.3502649 C25.3046346,15.8446246 25.1519526,16.2458276 24.6574897,16.2458276 Z M16.8499694,16.2458276 L15.6594621,16.2458276 C15.1651024,16.2458276 14.9505222,15.8447278 14.9505222,15.3503681 L14.9505222,13.9331073 C14.9505222,13.4387476 15.1651024,13.0376477 15.6594621,13.0376477 L17.5495214,13.0376477 C18.5698089,13.0557013 18.9801935,13.2423242 18.352856,14.3295648 L17.6532008,15.7468256 C17.5017567,16.0521896 17.1905123,16.2458276 16.8499694,16.2458276 Z M22.4188408,12.3653309 L17.9413366,12.3653309 C17.6334966,12.3653309 17.3467019,12.2067685 17.1822592,11.9455584 L14.7943326,8.14037105 C14.62174,7.86461489 14.6124553,7.51654109 14.7698829,7.23150022 C14.9273104,6.94645934 15.2281353,7.00495307 15.55341,7.00495307 L24.8067673,7.00495307 C25.132042,7.00495307 25.4328669,6.94645934 25.5902945,7.23150022 C25.747722,7.51664426 25.7383342,7.86461489 25.5658447,8.14037105 L23.1779181,11.9455584 C23.0134754,12.2067685 22.7266808,12.3653309 22.4188408,12.3653309 Z" id="Combined-Shape-Copy"></path>
        </g>
    </g>
</svg>