<svg xmlns="http://www.w3.org/2000/svg" width="20" height="20" viewBox="0 0 20 20">
  <defs>
    <style>
      .cls-1 {
      fill: transparent;
      fill-rule: evenodd;
      stroke-dasharray: 120;
      stroke-dashoffset: 120;
      animation: dash 1.5s linear forwards;
      animation-delay: 500ms;
      stroke: #fff;
      }
      @keyframes dash {
      from{
      fill: transparent;
      stroke: #fff;
      }
      to {
      fill: #fff;
      stroke-dashoffset: 0;
      stroke: transparent;
      }
    </style>
  </defs>
  <path id="social.svg" class="cls-1" d="M551.792,374.056l-4.846-4.853a0.707,0.707,0,0,0-.5-0.206h-9.42a0.7,0.7,0,0,0-.7.7v2.5h-3.62a0.7,0.7,0,0,0-.7.7v13.233a2.868,2.868,0,0,0,2.864,2.866h14.267A2.867,2.867,0,0,0,552,386.139V374.553A0.7,0.7,0,0,0,551.792,374.056Zm-15.465,12.083a1.459,1.459,0,1,1-2.918,0v-12.53h2.918v12.53ZM547.151,371.4l2.449,2.452h-2.449V371.4Zm3.443,14.742a1.461,1.461,0,0,1-1.459,1.46h-11.8a2.851,2.851,0,0,0,.4-1.46V370.4h8.016v4.15a0.7,0.7,0,0,0,.7.7h4.145v10.883Zm-10.758-12.49h4.327a0.7,0.7,0,0,0,0-1.406h-4.327A0.7,0.7,0,0,0,539.836,373.649Zm-0.7,3.622a0.7,0.7,0,0,0,.7.7h8.653a0.7,0.7,0,0,0,0-1.406h-8.653A0.7,0.7,0,0,0,539.133,377.271Zm0.7-1.46h4.327a0.7,0.7,0,0,0,0-1.406h-4.327A0.7,0.7,0,0,0,539.836,375.811Zm8.652,2.92h-8.652a0.7,0.7,0,0,0,0,1.406h8.653A0.7,0.7,0,0,0,548.488,378.731Zm0,2.435h-8.652a0.7,0.7,0,0,0-.7.7v3.188a0.7,0.7,0,0,0,.7.7h8.653a0.7,0.7,0,0,0,.7-0.7v-3.188A0.7,0.7,0,0,0,548.488,381.166Zm-0.7,3.188h-7.248v-1.782h7.248v1.782h0Z" transform="translate(-532 -369)"/>
</svg>
