<svg id="team.svg" xmlns="http://www.w3.org/2000/svg" width="103.38" height="53.69" viewBox="0 0 103.38 53.69">
  <defs>
    <style>
      .cls-1 {
        fill: #fff;
      }

      .cls-1, .cls-2 {
        fill-rule: evenodd;
      }

      .cls-2 {
        fill: #575454;
      }
    </style>
  </defs>
  <path id="Shape_1_copy_5" data-name="Shape 1 copy 5" class="cls-1" d="M5151.74,2728.74c-1.94-10.3,6.01-13.1,6.01-13.1a9.193,9.193,0,0,1,2.75-.41h1.46a9.253,9.253,0,0,1,2.76.41s7.95,2.8,6,13.1c0,0-1.13,6.5-3.89,9.47v0.08c-1.86,1.98-3.81,2.89-5.76,2.8a7.83,7.83,0,0,1-5.27-2.8v-0.08C5152.31,2735,5151.74,2728.74,5151.74,2728.74Zm9.49,26.03c-10.22,0-20.36-1.08-19.54-3.3,1.62-4.36,4.21-5.19,6.32-5.6s7.14-1.65,7.63-2.88a5.52,5.52,0,0,0,.16-1.81,9,9,0,0,0,5.03,1.97h0.32a8.66,8.66,0,0,0,5.44-2.06,10.288,10.288,0,0,0,.16,1.9c0.41,1.23,5.52,2.47,7.62,2.88s4.71,1.24,6.33,5.6C5181.67,2753.69,5171.45,2754.77,5161.23,2754.77Z" transform="translate(-5139.31 -2710.22)"/>
  <path id="Shape_1_copy_5-2" data-name="Shape 1 copy 5" class="cls-2" d="M5182.81,2750.73c-1.95-5.27-5.27-6.51-7.95-7a24.36,24.36,0,0,1-6-1.81c0-.5-0.08-1.4,0-2.89l0.16-.16h0c2.92-2.8,4.06-11.37,4.06-11.45,0.81-8.48-4.46-12.77-7.63-13.84h-0.16a13.349,13.349,0,0,0-3.41-.57h-1.46a10.529,10.529,0,0,0-3.4.57h-0.17c-3.16,1.16-8.51,5.36-7.62,13.84,0,0,1.3,8.98,3.97,11.37h0a1.044,1.044,0,0,1,.25.33,15.052,15.052,0,0,1,0,2.8,25.788,25.788,0,0,1-6.01,1.81c-2.67.49-6,1.73-7.94,7a2.753,2.753,0,0,0,.32,2.64c2.03,2.96,12.65,3.62,21.25,3.62s19.23-.66,21.25-3.62A2.463,2.463,0,0,0,5182.81,2750.73Zm-31.07-21.99c-1.94-10.3,6.01-13.1,6.01-13.1a9.193,9.193,0,0,1,2.75-.41h1.46a9.253,9.253,0,0,1,2.76.41s7.95,2.8,6,13.1c0,0-1.13,6.5-3.89,9.47v0.08c-1.86,1.98-3.81,2.89-5.76,2.8a7.83,7.83,0,0,1-5.27-2.8v-0.08C5152.31,2735,5151.74,2728.74,5151.74,2728.74Zm9.49,26.03c-10.22,0-20.36-1.08-19.54-3.3,1.62-4.36,4.21-5.19,6.32-5.6s7.14-1.65,7.63-2.88a5.52,5.52,0,0,0,.16-1.81,9,9,0,0,0,5.03,1.97h0.32a8.66,8.66,0,0,0,5.44-2.06,10.288,10.288,0,0,0,.16,1.9c0.41,1.23,5.52,2.47,7.62,2.88s4.71,1.24,6.33,5.6C5181.67,2753.69,5171.45,2754.77,5161.23,2754.77Z" transform="translate(-5139.31 -2710.22)"/>
  <path id="Shape_1_copy_6" data-name="Shape 1 copy 6" class="cls-1" d="M5211.44,2728.74c-1.95-10.3,6-13.1,6-13.1a9.253,9.253,0,0,1,2.76-.41h1.46a9.3,9.3,0,0,1,2.76.41s7.94,2.8,6,13.1c0,0-1.14,6.5-3.9,9.47v0.08c-1.86,1.98-3.81,2.89-5.75,2.8a7.855,7.855,0,0,1-5.28-2.8v-0.08C5212.01,2735,5211.44,2728.74,5211.44,2728.74Zm9.49,26.03c-10.22,0-20.36-1.08-19.55-3.3,1.62-4.36,4.22-5.19,6.33-5.6s7.13-1.65,7.62-2.88a5.52,5.52,0,0,0,.16-1.81,9,9,0,0,0,5.03,1.97h0.33a8.634,8.634,0,0,0,5.43-2.06,10.288,10.288,0,0,0,.16,1.9c0.41,1.23,5.52,2.47,7.63,2.88s4.7,1.24,6.32,5.6C5241.37,2753.69,5231.15,2754.77,5220.93,2754.77Z" transform="translate(-5139.31 -2710.22)"/>
  <path id="Shape_1_copy_6-2" data-name="Shape 1 copy 6" class="cls-2" d="M5242.5,2750.73c-1.94-5.27-5.27-6.51-7.95-7a24.5,24.5,0,0,1-6-1.81c0-.5-0.08-1.4,0-2.89l0.16-.16h0c2.92-2.8,4.06-11.37,4.06-11.45,0.81-8.48-4.46-12.77-7.62-13.84h-0.17a13.277,13.277,0,0,0-3.4-.57h-1.46a10.586,10.586,0,0,0-3.41.57h-0.16c-3.17,1.16-8.52,5.36-7.63,13.84,0,0,1.3,8.98,3.98,11.37h0a1.04,1.04,0,0,1,.24.33,15.052,15.052,0,0,1,0,2.8,25.529,25.529,0,0,1-6,1.81c-2.68.49-6,1.73-7.95,7a2.78,2.78,0,0,0,.32,2.64c2.03,2.96,12.66,3.62,21.26,3.62s19.22-.66,21.25-3.62A2.441,2.441,0,0,0,5242.5,2750.73Zm-31.06-21.99c-1.95-10.3,6-13.1,6-13.1a9.253,9.253,0,0,1,2.76-.41h1.46a9.3,9.3,0,0,1,2.76.41s7.94,2.8,6,13.1c0,0-1.14,6.5-3.9,9.47v0.08c-1.86,1.98-3.81,2.89-5.75,2.8a7.855,7.855,0,0,1-5.28-2.8v-0.08C5212.01,2735,5211.44,2728.74,5211.44,2728.74Zm9.49,26.03c-10.22,0-20.36-1.08-19.55-3.3,1.62-4.36,4.22-5.19,6.33-5.6s7.13-1.65,7.62-2.88a5.52,5.52,0,0,0,.16-1.81,9,9,0,0,0,5.03,1.97h0.33a8.634,8.634,0,0,0,5.43-2.06,10.288,10.288,0,0,0,.16,1.9c0.41,1.23,5.52,2.47,7.63,2.88s4.7,1.24,6.32,5.6C5241.37,2753.69,5231.15,2754.77,5220.93,2754.77Z" transform="translate(-5139.31 -2710.22)"/>
  <path id="Shape_1_copy_4" data-name="Shape 1 copy 4" class="cls-1" d="M5179.59,2729.42c-2.4-12.56,7.41-15.98,7.41-15.98a11.613,11.613,0,0,1,3.4-.5h1.8a11.718,11.718,0,0,1,3.41.5s9.8,3.42,7.4,15.98c0,0-1.4,7.94-4.8,11.56v0.1c-2.3,2.41-4.71,3.52-7.11,3.42-3-.1-5.3-2.11-6.5-3.42v-0.1C5180.29,2737.06,5179.59,2729.42,5179.59,2729.42Zm11.71,31.76c-12.61,0-25.12-1.31-24.12-4.02,2.01-5.33,5.21-6.33,7.81-6.83s8.81-2.01,9.41-3.52a6.591,6.591,0,0,0,.2-2.21,11.142,11.142,0,0,0,6.2,2.41h0.4a10.732,10.732,0,0,0,6.71-2.51,12.267,12.267,0,0,0,.2,2.31c0.5,1.51,6.8,3.01,9.4,3.52s5.81,1.5,7.81,6.83C5216.52,2759.87,5203.91,2761.18,5191.3,2761.18Z" transform="translate(-5139.31 -2710.22)"/>
  <path id="Shape_1_copy_3" data-name="Shape 1 copy 3" class="cls-2" d="M5217.92,2756.26c-2.4-6.44-6.5-7.94-9.81-8.55a29.677,29.677,0,0,1-7.4-2.21c0-.6-0.1-1.71,0-3.52l0.2-.2h0c3.6-3.41,5-13.87,5-13.97,1-10.35-5.5-15.57-9.4-16.88h-0.2a16.814,16.814,0,0,0-4.21-.7h-1.8a13.184,13.184,0,0,0-4.2.7h-0.2c-3.9,1.41-10.51,6.53-9.41,16.88,0,0,1.6,10.96,4.91,13.87h0a1.38,1.38,0,0,1,.3.4,17.929,17.929,0,0,1,0,3.42,31.345,31.345,0,0,1-7.41,2.21c-3.3.61-7.41,2.11-9.81,8.55a3.333,3.333,0,0,0,.4,3.21c2.5,3.62,15.61,4.42,26.22,4.42s23.72-.8,26.22-4.42A2.95,2.95,0,0,0,5217.92,2756.26Zm-38.33-26.84c-2.4-12.56,7.41-15.98,7.41-15.98a11.613,11.613,0,0,1,3.4-.5h1.8a11.718,11.718,0,0,1,3.41.5s9.8,3.42,7.4,15.98c0,0-1.4,7.94-4.8,11.56v0.1c-2.3,2.41-4.71,3.52-7.11,3.42-3-.1-5.3-2.11-6.5-3.42v-0.1C5180.29,2737.06,5179.59,2729.42,5179.59,2729.42Zm11.71,31.76c-12.61,0-25.12-1.31-24.12-4.02,2.01-5.33,5.21-6.33,7.81-6.83s8.81-2.01,9.41-3.52a6.591,6.591,0,0,0,.2-2.21,11.142,11.142,0,0,0,6.2,2.41h0.4a10.732,10.732,0,0,0,6.71-2.51,12.267,12.267,0,0,0,.2,2.31c0.5,1.51,6.8,3.01,9.4,3.52s5.81,1.5,7.81,6.83C5216.52,2759.87,5203.91,2761.18,5191.3,2761.18Z" transform="translate(-5139.31 -2710.22)"/>
</svg>
