<?xml version="1.0" encoding="UTF-8"?>
<svg width="96px" height="96px" viewBox="0 0 96 96" version="1.1" xmlns="http://www.w3.org/2000/svg" xmlns:xlink="http://www.w3.org/1999/xlink">
    <!-- Generator: Sketch 44.1 (41455) - http://www.bohemiancoding.com/sketch -->
    <title>trip_meter@1x</title>
    <desc>Created with Sketch.</desc>
    <defs></defs>
    <g id="Page-1" stroke="none" stroke-width="1" fill="none" fill-rule="evenodd">
        <g id="trip_meter" fill="#FFFFFF">
            <path d="M31.9400221,29.6945827 C28.4281876,29.6945827 25.5792962,26.9099103 25.5792962,23.4739594 C25.5792962,20.036994 28.4281876,17.2543505 31.9400221,17.2543505 C35.4539316,17.2543505 38.302823,20.0380084 38.302823,23.4739594 C38.302823,26.9099103 35.4539316,29.6945827 31.9400221,29.6945827 L31.9400221,29.6945827 Z M31.9400221,46.1834952 C31.9400221,46.1834952 45.1573845,30.0608001 45.1573845,22.9231116 C45.1573845,15.7854232 39.2406955,10 31.9400221,10 C24.6414237,10 18.7247347,15.7854232 18.7247347,22.9231116 C18.7247347,30.0618145 31.9400221,46.1834952 31.9400221,46.1834952 L31.9400221,46.1834952 Z" id="Shape"></path>
            <path d="M11.0476366,78.1618545 C11.0476366,77.2832334 10.7877957,76.4656473 10.3465015,75.7715508 L29.5776369,56.965652 C30.2874818,57.3971558 31.1236181,57.651232 32.0221744,57.651232 C33.2967016,57.651232 34.4521956,57.1487572 35.2912351,56.3354294 L56.0349644,69.0364018 C55.8752856,69.4962939 55.7838332,69.9874133 55.7838332,70.5012435 C55.7838332,73.0107785 57.8640126,75.0448077 60.4304866,75.0448077 C62.9969606,75.0448077 65.0756884,73.0107785 65.0756884,70.5012435 C65.0756884,69.8696015 64.9435905,69.2691867 64.7055239,68.7227099 L87.2826562,52.534222 C88.0941149,53.2141243 89.1450918,53.6257562 90.2976825,53.6257562 C92.8656081,53.6257562 94.9443359,51.591727 94.9443359,49.0836114 C94.9443359,46.5740764 92.8641565,44.5400472 90.2976825,44.5400472 C87.7326602,44.5400472 85.6524807,46.5740764 85.6524807,49.0836114 C85.6524807,49.7152534 85.7845786,50.3156682 86.0226452,50.8607255 L63.4484161,67.0506329 C62.6355058,66.3707306 61.5830773,65.9590987 60.4319382,65.9590987 C59.1559594,65.9590987 58.001917,66.4615735 57.1628775,67.2749013 L36.4162449,54.5725095 C36.5773754,54.1126173 36.6673762,53.6214979 36.6673762,53.1076678 C36.6673762,50.5981328 34.5871967,48.5641036 32.0207227,48.5641036 C29.4542488,48.5641036 27.3740693,50.5981328 27.3740693,53.1076678 C27.3740693,53.9862889 27.6324587,54.8024556 28.0737528,55.4979715 L8.84552066,74.3024509 C8.13422414,73.8709471 7.29953944,73.6182903 6.40098322,73.6182903 C3.83450922,73.6182903 1.75432979,75.6523195 1.75432979,78.1618545 C1.75432979,80.6699701 3.83450922,82.7039993 6.40098322,82.7039993 C8.96745721,82.7039993 11.0476366,80.6699701 11.0476366,78.1618545 Z" id="Shape"></path>
        </g>
    </g>
</svg>