<svg xmlns="http://www.w3.org/2000/svg" width="22.72" height="17.156" viewBox="0 0 22.72 17.156">
  <defs>
    <style>
      .cls-1 {
        fill: #6D6D6D;
        fill-rule: evenodd;
      }
    </style>
  </defs>
  <path id="console.svg" class="cls-1" d="M2092.59,150.274a1.757,1.757,0,0,1-.95.265c-1.08,0-2.47-.823-4.24-2.487a6.883,6.883,0,0,0-4.92-2.028,7.276,7.276,0,0,0-4.89,2.007c-2.36,2.228-4.06,2.954-5.21,2.244-2.41-1.5-.76-8.862.06-11.96h0c0.65-2.463,1.72-4.02,3.2-4.629a4.057,4.057,0,0,1,3.58.361,5.115,5.115,0,0,0,6.52,0,4.077,4.077,0,0,1,3.59-.366c1.47,0.609,2.55,2.166,3.2,4.629C2093.35,141.412,2095,148.779,2092.59,150.274Zm-1.01-11.7c-0.56-2.143-1.45-3.475-2.62-3.959a3.1,3.1,0,0,0-2.71.291,6.046,6.046,0,0,1-7.53.007,3.085,3.085,0,0,0-2.71-.3c-1.18.484-2.06,1.816-2.62,3.959h0c-1.5,5.636-1.7,10.092-.5,10.835,0.4,0.249,1.45.308,4.01-2.1a8.092,8.092,0,0,1,5.58-2.3,7.7,7.7,0,0,1,5.62,2.332c2.52,2.369,3.58,2.313,3.98,2.065C2093.28,148.669,2093.07,144.213,2091.58,138.578Zm-3.49,1.764a1.594,1.594,0,1,1,1.61-1.593A1.6,1.6,0,0,1,2088.09,140.342Zm-3.22,3.508a1.849,1.849,0,1,1,1.86-1.849A1.854,1.854,0,0,1,2084.87,143.85ZM2078,143h-1v-2h-2v-1h2v-2h1v2h2v1h-2v2Z" transform="translate(-2071.12 -133.406)"/>
</svg>
