<svg xmlns="http://www.w3.org/2000/svg" width="22.06" height="16" viewBox="0 0 22.06 16">
  <defs>
    <style>
      .cls-1 {
        fill: #323232;
        fill-rule: evenodd;
      }
    </style>
  </defs>
  <path id="console_select.svg" class="cls-1" d="M2072.28,138.5c1.47-5.445,4.77-4.764,6.15-3.94a5.766,5.766,0,0,0,7.14,0c1.38-.824,4.68-1.5,6.15,3.94s3.3,16.261-4.39,9.169a7.473,7.473,0,0,0-5.33-2.146,7.879,7.879,0,0,0-5.33,2.146C2068.98,154.758,2070.81,143.941,2072.28,138.5Zm15.81,1.845a1.594,1.594,0,1,0-1.6-1.593A1.6,1.6,0,0,0,2088.09,140.342Zm-3.22,3.508a1.849,1.849,0,1,0-1.86-1.849A1.854,1.854,0,0,0,2084.87,143.85ZM2079,141h-2v2h-1v-2h-2v-1h2v-2h1v2h2v1Z" transform="translate(-2070.97 -134)"/>
</svg>
