<svg xmlns="http://www.w3.org/2000/svg" width="17" height="18" viewBox="0 0 17 18">
  <defs>
    <style>
      .cls-1 {
        fill: #323232;
        fill-rule: evenodd;
      }
    </style>
  </defs>
  <path id="department-active.svg" class="cls-1" d="M2092,271.509a0.34,0.34,0,0,1,.1-0.284l6.15-6.565-0.88-.864a2.075,2.075,0,0,1,0-2.978l0.2-.2a2.174,2.174,0,0,1,1.52-.615,2.139,2.139,0,0,1,1.52.615l2.18,2.132a5.788,5.788,0,0,1,6.1,1.254,0.375,0.375,0,0,1,0,.531l-1.9,1.863a2.5,2.5,0,0,1,.46.364,2.607,2.607,0,0,1,0,3.749,2.7,2.7,0,0,1-1.91.774,2.73,2.73,0,0,1-1.91-.774,3.041,3.041,0,0,1-.37-0.455l-1.9,1.865a0.389,0.389,0,0,1-.54,0,5.528,5.528,0,0,1-1.28-5.989l-0.75-.738-5.85,6.242,7.58,5.817h8.1a0.375,0.375,0,1,1,0,.75h-14.68a0.375,0.375,0,1,1,0-.75h5.34l-7.14-5.476A0.389,0.389,0,0,1,2092,271.509Zm9.1-.4,6.97-6.835a5.021,5.021,0,0,0-6.71.255A4.785,4.785,0,0,0,2101.1,271.112Z" transform="translate(-2092 -260)"/>
</svg>
