<svg xmlns="http://www.w3.org/2000/svg" width="17" height="18" viewBox="0 0 17 18">
  <defs>
    <style>
      .cls-1 {
        fill: #6D6D6D;
        fill-rule: evenodd;
      }
    </style>
  </defs>
  <path id="department.svg" class="cls-1" d="M2073,271.509a0.34,0.34,0,0,1,.1-0.284l6.15-6.565-0.88-.864a2.075,2.075,0,0,1,0-2.978l0.2-.2a2.174,2.174,0,0,1,1.52-.615,2.139,2.139,0,0,1,1.52.615l2.18,2.132a5.788,5.788,0,0,1,6.1,1.254,0.375,0.375,0,0,1,0,.531l-1.9,1.863a2.5,2.5,0,0,1,.46.364,2.607,2.607,0,0,1,0,3.749,2.7,2.7,0,0,1-1.91.774,2.73,2.73,0,0,1-1.91-.774,3.041,3.041,0,0,1-.37-0.455l-1.9,1.865a0.389,0.389,0,0,1-.54,0,5.528,5.528,0,0,1-1.28-5.989l-0.75-.738-5.85,6.242,7.58,5.817h8.1a0.375,0.375,0,1,1,0,.75h-14.68a0.375,0.375,0,1,1,0-.75h5.34l-7.14-5.476A0.389,0.389,0,0,1,2073,271.509Zm12.17-1.532a1.967,1.967,0,0,0,2.74,0,1.87,1.87,0,0,0,0-2.688,1.815,1.815,0,0,0-.49-0.338l-2.59,2.545A1.956,1.956,0,0,0,2085.17,269.977Zm-3.07,1.135,6.97-6.835a5.021,5.021,0,0,0-6.71.255A4.785,4.785,0,0,0,2082.1,271.112ZM2081.82,264a5.589,5.589,0,0,1,1.23-.912l-1.98-1.944a1.448,1.448,0,0,0-1.96,0l-0.2.2a1.338,1.338,0,0,0,0,1.918l1.98,1.945A5.467,5.467,0,0,1,2081.82,264Z" transform="translate(-2073 -260)"/>
</svg>
