<svg xmlns="http://www.w3.org/2000/svg" width="16" height="23" viewBox="0 0 16 23">
  <defs>
    <style>
      .cls-1 {
        fill: #6D6D6D;
        fill-rule: evenodd;
      }
    </style>
  </defs>
  <path id="designation.svg" class="cls-1" d="M2087.93,222.664v2.1l-1.86,1.051-1.07,1.819-0.27,7.842v0a0.522,0.522,0,0,1-.15.368,0.534,0.534,0,0,1-.38.148h0a0.543,0.543,0,0,1-.42-0.206l-2.78-2.731-2.78,2.731a0.543,0.543,0,0,1-.42.206h0a0.51,0.51,0,0,1-.53-0.516v0l-0.27-7.842-1.07-1.819-1.86-1.051v-2.1l-1.07-1.82,1.07-1.82v-2.1l1.86-1.052,1.07-1.819h2.15L2081,213l1.86,1.051H2085l1.07,1.819,1.86,1.052v2.1l1.07,1.821Zm-9.59,4.974a0.463,0.463,0,0,0-.34.362v6l2.57-1.957c0.02-.025.03-0.053,0.05-0.076a0.565,0.565,0,0,1,.76,0c0.02,0.023.03,0.051,0.05,0.076L2084,234s-0.34-4.406-.34-5.9v-0.459s0.01,0,.01,0h-0.81l-1.86,1.052-1.85-1.052h-0.82S2078.34,227.637,2078.34,227.638Zm8.52-8.335v-1.778l-1.57-.89-0.9-1.538h-1.82l-1.57-.889-1.57.889h-1.81l-0.91,1.537-1.57.89V219.3l-0.91,1.541,0.91,1.54v1.777l1.57,0.89,0.91,1.539h1.81l1.57,0.889,1.57-.889h1.81l0.91-1.539,1.57-.89v-1.776l0.91-1.541Z" transform="translate(-2073 -213)"/>
</svg>
