<svg xmlns="http://www.w3.org/2000/svg" width="15.56" height="23" viewBox="0 0 15.56 23">
  <defs>
    <style>
      .cls-1 {
        fill: #323232;
        fill-rule: evenodd;
      }
    </style>
  </defs>
  <path id="designation-active.svg" class="cls-1" d="M2093,229v7l3.57-2.957c0.02-.025.03-0.053,0.05-0.076a0.565,0.565,0,0,1,.76,0c0.02,0.023.03,0.051,0.05,0.076L2101,236v-7h-1l-3,2-3-2h-1Zm10.54-9.86v-2.148l-1.81-1.075-1.04-1.857h-2.08l-1.81-1.073-1.8,1.073h-2.09l-1.04,1.857-1.81,1.074v2.149L2089.02,221l1.04,1.859v2.146l1.81,1.074,1.04,1.859H2095l1.8,1.073,1.8-1.073h2.09l1.04-1.859,1.81-1.074v-2.145l1.04-1.86Z" transform="translate(-2089.03 -213)"/>
</svg>
