<?xml version="1.0" encoding="UTF-8"?>
<svg width="90px" height="90px" viewBox="0 0 90 90" version="1.1" xmlns="http://www.w3.org/2000/svg" xmlns:xlink="http://www.w3.org/1999/xlink">
    <!-- Generator: Sketch 41.2 (35397) - http://www.bohemiancoding.com/sketch -->
    <title>empty-customer@1x</title>
    <desc>Created with Sketch.</desc>
    <defs></defs>
    <g id="Page-1" stroke="none" stroke-width="1" fill="none" fill-rule="evenodd">
        <g id="empty-customer">
            <g id="Group-2"></g>
            <rect id="circle_bg.svg" fill="#FF9100" x="6" y="6" width="80" height="80" rx="40"></rect>
            <path d="M45.89801,48.3338308 C36.4930348,48.3338308 33.6313433,55.0004975 33.6313433,55.0004975 L33.6313433,58.4353234 L58.1646766,58.4353234 L58.1646766,55.0004975 C58.1646766,55.0004975 55.3029851,48.3338308 45.89801,48.3338308 Z" id="Path" fill="#FFFFFF"></path>
            <path d="M59.1875622,32.1666667 C61.96933,32.1993286 64.2010321,34.4751413 64.1792481,37.2570156 C64.1574641,40.0388899 61.8903954,42.2794741 59.1084572,42.2685683 C56.326519,42.2576624 54.077087,39.9993725 54.0771144,37.2174129 C54.0937715,34.4115487 56.3816959,32.1503523 59.1875622,32.1666667 Z" id="Path" fill="#FFFFFF"></path>
            <path d="M59.1875622,46.3119403 C56.7318408,46.3119403 54.8930348,46.9169154 53.460199,47.9278607 C58.1646766,50.1487562 60.0034826,53.9895522 60.0034826,54.3955224 L60.0034826,54.5945274 L68.3855721,54.5945274 L68.3855721,51.9676617 C68.3855721,51.7686567 66.1368159,46.3119403 59.1875622,46.3119403 Z" id="Path" fill="#FFFFFF"></path>
            <path d="M32.6084577,32.1666667 C35.3902255,32.1993286 37.6219277,34.4751413 37.6001436,37.2570156 C37.5783596,40.0388899 35.3112909,42.2794741 32.5293528,42.2685683 C29.7474146,42.2576624 27.4979825,39.9993725 27.49801,37.2174129 C27.5052709,35.8697496 28.0479304,34.5802418 29.0064686,33.6329014 C29.9650068,32.6855611 31.2608021,32.1580914 32.6084577,32.1666667 Z" id="Path" fill="#FFFFFF"></path>
            <path d="M32.6084577,46.3119403 C35.0641791,46.3119403 36.9029851,46.9169154 38.3358209,47.9278607 C33.6313433,50.1487562 31.7925373,53.9895522 31.7925373,54.3955224 L31.7925373,54.5945274 L23.4104478,54.5945274 L23.4104478,51.9676617 C23.4104478,51.7686567 25.659204,46.3119403 32.6084577,46.3119403 Z" id="Path" fill="#FFFFFF"></path>
            <path d="M59.1875622,46.3119403 C56.7318408,46.3119403 54.8930348,46.9169154 53.460199,47.9278607 C58.1646766,50.1487562 60.0034826,53.9895522 60.0034826,54.3955224 L60.0034826,54.5945274 L68.3855721,54.5945274 L68.3855721,51.9676617 C68.3855721,51.7686567 66.1368159,46.3119403 59.1875622,46.3119403 Z" id="Path" fill="#FFFFFF"></path>
            <path d="M59.1875622,32.1666667 C61.96933,32.1993286 64.2010321,34.4751413 64.1792481,37.2570156 C64.1574641,40.0388899 61.8903954,42.2794741 59.1084572,42.2685683 C56.326519,42.2576624 54.077087,39.9993725 54.0771144,37.2174129 C54.0937715,34.4115487 56.3816959,32.1503523 59.1875622,32.1666667 Z" id="Path" fill="#FFFFFF"></path>
            <path d="M39.7646766,38.2283582 C39.7354622,35.741112 41.211276,33.4824905 43.5008753,32.5103884 C45.7904745,31.5382863 48.4404616,32.045204 50.2096339,33.793711 C51.9788061,35.5422181 52.5168234,38.1860665 51.5716887,40.4869289 C50.6265541,42.7877913 48.3854278,44.2900396 45.89801,44.2900498 C44.272134,44.3291864 42.7002413,43.7054889 41.5435044,42.5622635 C40.3867676,41.4190382 39.744645,39.8545818 39.7646766,38.2283582 Z" id="Path" fill="#FFFFFF"></path>
        </g>
        <g id="tick-green" transform="translate(-318.000000, -1038.000000)"></g>
    </g>
</svg>