<svg xmlns="http://www.w3.org/2000/svg" width="20" height="20" viewBox="0 0 20 20">
  <defs>
    <style>
      .cls-1 {
        fill: #6D6D6D;
        fill-rule: evenodd;
      }
    </style>
  </defs>
  <path id="leave_mgt.svg" class="cls-1" d="M857.345,344.778H856a0.445,0.445,0,0,0,0,.889h1.345a1.762,1.762,0,0,1,1.766,1.8v2.2H840.889v-2.2a1.819,1.819,0,0,1,1.838-1.8H844a0.445,0.445,0,0,0,0-.889h-1.273A2.709,2.709,0,0,0,840,347.463v12.846A2.713,2.713,0,0,0,842.727,363h14.618A2.676,2.676,0,0,0,860,360.309V347.463A2.641,2.641,0,0,0,857.345,344.778Zm0,17.333H842.727a1.822,1.822,0,0,1-1.838-1.8v-9.753h18.222v9.753A1.765,1.765,0,0,1,857.345,362.111Zm-9.789-16.444h4.888a0.445,0.445,0,1,0,0-.889h-4.888A0.445,0.445,0,1,0,847.556,345.667Zm-2.223-2.223V347a0.445,0.445,0,0,0,.889,0v-3.556A0.445,0.445,0,0,0,845.333,343.444Zm8.445,0V347a0.445,0.445,0,0,0,.889,0v-3.556A0.445,0.445,0,0,0,853.778,343.444Zm-3.559,10.872c0-1.321-1.1-2.21-2.732-2.21a2.687,2.687,0,0,0-2.316,1.122,0.442,0.442,0,0,0,.147.605,0.447,0.447,0,0,0,.611-0.14,1.819,1.819,0,0,1,1.558-.7c0.891,0,1.843.347,1.843,1.321a1.6,1.6,0,0,1-1.662,1.35h-0.741a0.445,0.445,0,1,0,0,.889h0.741a1.6,1.6,0,0,1,1.662,1.344c0,0.969-.952,1.315-1.843,1.315a2.569,2.569,0,0,1-1.838-.751,0.444,0.444,0,0,0-.669.585,3.474,3.474,0,0,0,2.507,1.054c1.634,0,2.732-.885,2.732-2.2a2.127,2.127,0,0,0-1.052-1.789A2.134,2.134,0,0,0,850.219,354.316Zm3.727-2.154a0.445,0.445,0,0,0-.485.1l-1.74,1.765a0.444,0.444,0,1,0,.633.624l0.979-.993v6.009a0.445,0.445,0,0,0,.889,0v-7.093A0.445,0.445,0,0,0,853.946,352.162Z" transform="translate(-840 -343)"/>
</svg>
