<svg xmlns="http://www.w3.org/2000/svg" width="21" height="22" viewBox="0 0 21 22">
  <defs>
    <style>
      .cls-1 {
        fill: #6D6D6D;
        fill-rule: evenodd;
      }
    </style>
  </defs>
  <path id="teamview.svg" class="cls-1" d="M2081.5,188.073a2.965,2.965,0,1,0,2.95,2.964A2.965,2.965,0,0,0,2081.5,188.073Zm0,4.772a1.807,1.807,0,1,1,1.8-1.807A1.807,1.807,0,0,1,2081.5,192.845Zm7.55-4.772a2.965,2.965,0,1,0,2.95,2.964A2.956,2.956,0,0,0,2089.05,188.073Zm0,4.772a1.807,1.807,0,1,1,1.8-1.807A1.8,1.8,0,0,1,2089.05,192.845Zm-15.1-4.772a2.965,2.965,0,1,0,2.94,2.964A2.958,2.958,0,0,0,2073.95,188.073Zm0,4.772a1.807,1.807,0,1,1,1.79-1.807A1.807,1.807,0,0,1,2073.95,192.845ZM2076,185h-1v-3h6v3h-1l1.5,2,1.5-2h-1v-3l6.03-.077L2088,185h-1l1.52,2,1.48-2h-1l0.01-3.992L2082,181l-0.04-1.905a3.54,3.54,0,1,0-.92,0L2081,181h-7v4h-1l1.47,2Zm3.11-9.431a2.39,2.39,0,1,1,2.39,2.4A2.4,2.4,0,0,1,2079.11,175.569Z" transform="translate(-2071 -172)"/>
</svg>
