<svg xmlns="http://www.w3.org/2000/svg" width="50" height="45" viewBox="0 0 50 45">
    <defs>
        <style>
            .cls-1 {
            fill: #323232;
            fill-rule: evenodd;
            }
        </style>
    </defs>
    <path id="timeline.svg" class="cls-1" d="M4349.56,1420.79a9.235,9.235,0,0,0-6.44-2.56h-0.02a9.063,9.063,0,0,0-9.1,9.01c0.01,3.84,5.9,12.52,9.14,16.85,3.23-4.39,9.1-13.17,9.09-17.02A8.658,8.658,0,0,0,4349.56,1420.79Zm-6.44,9.51a2.635,2.635,0,1,1,2.66-2.64A2.655,2.655,0,0,1,4343.12,1430.3Zm35.14-26.3h-0.01a5.717,5.717,0,0,0-5.73,5.67c0.01,2.17,3.21,7.23,5.76,10.68,2.53-3.49,5.72-8.62,5.72-10.79A5.6,5.6,0,0,0,4378.26,1404Zm0.01,8.59a2.15,2.15,0,1,1,2.17-2.15A2.173,2.173,0,0,1,4378.27,1412.59Zm-10.58,9.11a1.835,1.835,0,1,0,0,3.67h0A1.835,1.835,0,1,0,4367.69,1421.7Zm5.32,0a1.835,1.835,0,1,0,.01,3.67h0A1.835,1.835,0,1,0,4373.01,1421.7Zm-3.72,8.74a1.835,1.835,0,1,0,.01,3.67h0A1.835,1.835,0,1,0,4369.29,1430.44Zm-0.67,14.86a1.835,1.835,0,1,0,0,3.67h0A1.835,1.835,0,1,0,4368.62,1445.3Zm5.66-14.87a1.835,1.835,0,1,0,0,3.67h0.01A1.835,1.835,0,1,0,4374.28,1430.43Zm-0.68,14.87a1.83,1.83,0,1,0,.01,3.66h0A1.83,1.83,0,1,0,4373.6,1445.3Zm9.98-8.22a1.868,1.868,0,0,0-2.31-1.24,1.836,1.836,0,0,0-1.26,2.28,1.849,1.849,0,0,0,2.31,1.24A1.824,1.824,0,0,0,4383.58,1437.08Zm-1.32,3.64a1.858,1.858,0,0,0-2.41,1.03,1.822,1.822,0,0,0,1.05,2.38,1.787,1.787,0,0,0,.68.13,1.857,1.857,0,0,0,1.73-1.17A1.811,1.811,0,0,0,4382.26,1440.72Zm-2.26,4.44a1.872,1.872,0,0,0-2.55-.64,1.821,1.821,0,0,0-.65,2.51,1.868,1.868,0,0,0,1.6.9A1.844,1.844,0,0,0,4380,1445.16Zm-17.04-16.79a1.853,1.853,0,0,0-2.16-1.47,1.822,1.822,0,0,0-1.5,2.13A1.86,1.86,0,0,0,4362.96,1428.37Zm1.43-5.07a1.884,1.884,0,0,0-2.6-.41h0a1.82,1.82,0,0,0-.41,2.56,1.877,1.877,0,0,0,2.6.41A1.82,1.82,0,0,0,4364.39,1423.3Zm0.42,7.06a1.864,1.864,0,0,0-2.28,1.29,1.829,1.829,0,0,0,1.31,2.25,1.659,1.659,0,0,0,.49.07A1.835,1.835,0,0,0,4364.81,1430.36Zm15.25,1.81a1.885,1.885,0,0,0-2.6.42,1.842,1.842,0,0,0,1.51,2.91,1.9,1.9,0,0,0,1.51-.76A1.832,1.832,0,0,0,4380.06,1432.17Zm-21.41,13.15a1.835,1.835,0,1,0,0,3.67h0A1.835,1.835,0,1,0,4358.65,1445.32Zm-4.99.01a1.835,1.835,0,1,0,.01,3.67h0A1.835,1.835,0,1,0,4353.66,1445.33Zm-4.88,0a1.835,1.835,0,1,0,.01,3.67h0A1.835,1.835,0,1,0,4348.78,1445.33Zm14.85-.02a1.835,1.835,0,1,0,.01,3.67h0A1.835,1.835,0,1,0,4363.63,1445.31Z" transform="translate(-4334 -1404)"/>
</svg>
