<?xml version="1.0" encoding="utf-8"?>
<!-- Generator: Adobe Illustrator 19.0.1, SVG Export Plug-In . SVG Version: 6.00 Build 0)  -->
<!DOCTYPE svg PUBLIC "-//W3C//DTD SVG 1.1//EN" "http://www.w3.org/Graphics/SVG/1.1/DTD/svg11.dtd">
<svg version="1.1" id="Layer_1" xmlns="http://www.w3.org/2000/svg" xmlns:xlink="http://www.w3.org/1999/xlink" x="0px" y="0px"
	 viewBox="0 0 71.7 63" style="enable-background:new 0 0 71.7 63;" xml:space="preserve">
<style type="text/css">
	.st0{fill:none;}
	.st1{fill:#B0BEC5;}
</style>
<g>
	<path class="st0" d="M38.7,37.5c-0.2-0.5-0.2-1.3-0.2-2.3c-1.1,0.8-2.2,1.5-3.3,1.9c0,0.1,0,0.1,0,0.2c0,0.9-0.4,2.7-0.9,3.3
		L35,52.9c0,0.4-0.1,0.7-0.4,0.9l-2.3,2.1c-0.2,0.2-0.5,0.3-0.8,0.3c-0.2,0-0.5-0.1-0.8-0.3l-2.2-2.1c-0.2-0.2-0.4-0.5-0.4-0.9
		l0.7-12.5c-0.5-0.6-0.7-2.3-0.7-3.1c0-0.1,0-0.1,0-0.2c-1.2-0.5-2.2-1.1-3.1-1.7c0,0.9-0.1,1.8-0.2,2.2c-0.6,1.5-6.8,3-9.4,3.5
		c-2.6,0.5-5.8,6.5-7.8,11.8c-1,2.7,11.5,4,24.1,4c4.2,0,8.4-0.2,12.1-0.4c-1.9-2.5-3-5.5-3-8.9c0-2.8,0.8-5.5,2.2-7.7
		C41,39.1,39,38.3,38.7,37.5z"/>
	<path class="st0" d="M31.4,37.7c-0.4,0-0.7-0.1-1-0.1c0.1,0.2,0.1,0.5,0.1,0.6c0,0.7,0.6,1.2,1.2,1.2c0.2,0,0.5-0.1,0.7-0.2
		c0.1-0.1,0.1-0.1,0.2-0.1c0.2-0.2,0.4-0.5,0.4-0.9c0-0.1,0-0.3,0.1-0.6c-0.4,0.1-0.8,0.1-1.3,0.1C31.7,37.7,31.5,37.7,31.4,37.7z"
		/>
	<path class="st0" d="M31.8,41.7c-0.2,0-0.4,0-0.6-0.1l-0.7,10.7l1.1,1l1.2-1l-0.7-10.7C32.1,41.7,31.9,41.7,31.8,41.7z"/>
	<path class="st0" d="M25,31.8C25,31.8,25,31.8,25,31.8c1.2,1.3,3.5,3.3,6.5,3.4c2.4,0.1,4.8-1.1,7.1-3.4c0,0,0-0.1,0-0.1
		c3.4-3.6,4.8-8.5,4.8-8.5c2.4-12.5-7.4-15.9-7.4-15.9c-1.3-0.4-2.5-0.5-3.4-0.5c-0.3,0-0.6,0-0.9,0c-0.3,0-0.6,0-0.9,0
		c-0.9,0-2.1,0.1-3.4,0.5c0,0-9.8,3.4-7.4,15.9C20.1,23.2,20.8,27.8,25,31.8z"/>
	<path class="st1" d="M43.9,56.4c-3.7,0.3-7.9,0.4-12.1,0.4c-12.6,0-25.1-1.3-24.1-4c2-5.3,5.2-11.3,7.8-11.8c2.6-0.5,8.8-2,9.4-3.5
		c0.2-0.4,0.2-1.3,0.2-2.2c0.9,0.7,1.9,1.3,3.1,1.7c0,0.1,0,0.1,0,0.2c0,0.8,0.2,2.5,0.7,3.1l-0.7,12.5c0,0.4,0.1,0.7,0.4,0.9
		l2.2,2.1c0.2,0.2,0.5,0.3,0.8,0.3c0.3,0,0.5-0.1,0.8-0.3l2.3-2.1c0.2-0.2,0.4-0.5,0.4-0.9l-0.7-12.3c0.5-0.7,0.9-2.4,0.9-3.3
		c0-0.1,0-0.1,0-0.2c1.1-0.4,2.2-1,3.3-1.9c0,1,0.1,1.8,0.2,2.3c0.3,0.8,2.3,1.6,4.4,2.3c0.5-0.8,1.1-1.6,1.7-2.3
		c-1.6-0.4-3-0.9-3.7-1.3c0-0.6-0.1-1.7,0-3.5c0.1-0.1,0.1-0.1,0.2-0.2l0,0c3.6-3.4,5-10.8,5-10.9c1-10.3-5.5-15.5-9.4-16.8l-0.1,0
		l-0.1,0c-1.5-0.4-2.9-0.7-4.2-0.7c-0.3,0-0.6,0-0.9,0c-0.3,0-0.6,0-0.9,0c-1.3,0-2.7,0.2-4.2,0.7l-0.1,0l-0.1,0
		c-3.9,1.4-10.5,6.5-9.4,16.8c0,0,1.6,7.9,4.9,10.8v0c0,0,0,0,0,0c0.1,0.1,0.2,0.2,0.3,0.4c0.1,1.8,0.1,2.9,0,3.4
		c-1.2,0.7-4.7,1.7-7.4,2.2c-3.3,0.6-7.4,7.1-9.8,13.5C4.8,53,5,54.1,5.6,55.1c2.5,3.6,15.6,4.4,26.2,4.4c4.7,0,9.9-0.1,14.4-0.6
		C45.4,58.1,44.6,57.3,43.9,56.4z M31.6,53.4l-1.1-1l0.7-10.7c0.2,0.1,0.4,0.1,0.6,0.1c0.1,0,0.3-0.1,0.4-0.1l0.7,10.7L31.6,53.4z
		 M33,38.2c0,0.4-0.2,0.7-0.4,0.9c-0.1,0.1-0.1,0.1-0.2,0.1c-0.2,0.2-0.5,0.2-0.7,0.2c-0.7,0-1.2-0.5-1.2-1.2c0-0.2,0-0.4-0.1-0.6
		c0.3,0.1,0.7,0.1,1,0.1c0.1,0,0.3,0,0.4,0c0.4,0,0.9,0,1.3-0.1C33,37.9,33,38.1,33,38.2z M20.1,23.2c-2.4-12.5,7.4-15.9,7.4-15.9
		c1.3-0.4,2.5-0.5,3.4-0.5c0.3,0,0.6,0,0.9,0c0.3,0,0.6,0,0.9,0c0.9,0,2.1,0.1,3.4,0.5c0,0,9.8,3.4,7.4,15.9c0,0-1.4,4.9-4.8,8.5
		c0,0,0,0.1,0,0.1c-2.3,2.4-4.7,3.5-7.1,3.4c-3-0.1-5.3-2.1-6.5-3.4c0,0,0,0,0-0.1C20.8,27.8,20.1,23.2,20.1,23.2z"/>
</g>
<g>
	<g>
		<path class="st1" d="M55.7,34.5c-7.3,0-13.2,5.8-13.2,13c0,7.2,5.9,13,13.2,13c7.3,0,13.2-5.8,13.2-13
			C68.8,40.3,63,34.5,55.7,34.5z M55.7,58c-5.8,0-10.6-4.7-10.6-10.5c0-5.8,4.7-10.5,10.6-10.5c5.8,0,10.6,4.7,10.6,10.5
			C66.3,53.3,61.5,58,55.7,58z M56.9,41.5h-2.4v4.8h-4.8v2.4h4.8v4.8h2.4v-4.8h4.8v-2.4h-4.8V41.5z"/>
	</g>
</g>
</svg>
