<svg xmlns="http://www.w3.org/2000/svg" width="29" height="29" viewBox="0 0 29 29">
    <g fill="none" fill-rule="evenodd" transform="translate(2 2)">
        <circle cx="12.5" cy="12.5" r="12.5" fill="#707070" stroke="#FFF" stroke-width="2.143"/>
        <path fill="#FFF" d="M12.881 13.847a1.602 1.602 0 0 1-1.494-.988 1.641 1.641 0 0 1 .334-1.777 1.587 1.587 0 0 1 1.749-.362c.601.25.994.844.994 1.503.003.428-.163.84-.46 1.145-.296.304-.7.477-1.123.48zm0-4.922a3.277 3.277 0 0 0-3.056 2.024 3.357 3.357 0 0 0 .686 3.635 3.246 3.246 0 0 0 3.578.737 3.324 3.324 0 0 0 2.032-3.075 3.322 3.322 0 0 0-.94-2.342 3.232 3.232 0 0 0-2.3-.98zm4.796 8.218h-9.64a1.634 1.634 0 0 1-1.608-1.648V9.724a1.634 1.634 0 0 1 1.608-1.648h.802a1.646 1.646 0 0 1 .466-1.163 1.6 1.6 0 0 1 1.143-.484h4.819c.429.001.84.176 1.14.485.302.31.47.727.468 1.162h.802c.893.007 1.611.744 1.609 1.648v5.771a1.632 1.632 0 0 1-1.609 1.648z"/>
    </g>
</svg>
