<svg xmlns="http://www.w3.org/2000/svg" width="53.03" height="51" viewBox="0 0 53.03 51">
  <defs>
    <style>
      .cls-1 {
        fill: #505050;
        fill-rule: evenodd;
      }
    </style>
  </defs>
  <path id="circle.svg" class="cls-1" d="M4908.54,3787.48a4.16,4.16,0,1,1-4.19,4.16A4.176,4.176,0,0,1,4908.54,3787.48Zm-19.77-11.98a4.16,4.16,0,1,1-4.18,4.16A4.17,4.17,0,0,1,4888.77,3775.5Zm19.77-9.4a2.91,2.91,0,1,1-2.93,2.91A2.923,2.923,0,0,1,4908.54,3766.1Zm0,45.17a2.91,2.91,0,1,1-2.93,2.91A2.917,2.917,0,0,1,4908.54,3811.27Zm11.3-2.17a2.915,2.915,0,1,1-2.93,2.92A2.926,2.926,0,0,1,4919.84,3809.1Zm0-40.09a2.915,2.915,0,1,1-2.93,2.91A2.923,2.923,0,0,1,4919.84,3769.01Zm9.13,8.57a2.91,2.91,0,1,1-2.93,2.91A2.917,2.917,0,0,1,4928.97,3777.58Zm0,21.88a2.91,2.91,0,1,1-2.93,2.91A2.917,2.917,0,0,1,4928.97,3799.46Zm2.93-10.73a2.91,2.91,0,1,1-2.93,2.91A2.917,2.917,0,0,1,4931.9,3788.73Zm-34.67-20.72a4.16,4.16,0,1,1-4.18,4.16A4.176,4.176,0,0,1,4897.23,3768.01Zm0,38.6a4.16,4.16,0,1,1-4.18,4.16A4.17,4.17,0,0,1,4897.23,3806.61Zm5.45-29.45a4.16,4.16,0,1,1-4.19,4.16A4.174,4.174,0,0,1,4902.68,3777.16Zm0,20.13a4.16,4.16,0,1,1-4.19,4.16A4.168,4.168,0,0,1,4902.68,3797.29Zm-13.91.92a4.16,4.16,0,1,1-4.18,4.16A4.17,4.17,0,0,1,4888.77,3798.21Zm26.05-1.17a4.16,4.16,0,1,1-4.19,4.16A4.183,4.183,0,0,1,4914.82,3797.04Zm0-19.88a4.16,4.16,0,1,1-4.19,4.16A4.183,4.183,0,0,1,4914.82,3777.16Zm-17.59,10.32a4.16,4.16,0,1,1-4.18,4.16A4.17,4.17,0,0,1,4897.23,3787.48Zm-11.22,0a4.16,4.16,0,1,1-4.19,4.16A4.176,4.176,0,0,1,4886.01,3787.48Zm33.83,0a4.16,4.16,0,1,1-4.18,4.16A4.17,4.17,0,0,1,4919.84,3787.48Z" transform="translate(-4881.81 -3766.09)"/>
</svg>
