<svg xmlns="http://www.w3.org/2000/svg" width="48" height="46" viewBox="0 0 48 46">
    <defs>
        <style>
            .cls-1 {
            fill: #37ADE7;
            fill-rule: evenodd;
            }
        </style>
    </defs>
    <path id="custom_field.svg" class="cls-1" d="M5158,3781.33h48V3810a2.006,2.006,0,0,1-2,2h-44a2.006,2.006,0,0,1-2-2v-28.67Zm6.86,6.82h34.28v3.41h-34.28v-3.41Zm0,6.81h34.28v3.41h-34.28v-3.41Zm0,6.82h34.28v3.41h-34.28v-3.41Zm-6.86-28.97h46a2.006,2.006,0,0,1,2,2v4.82h-48v-6.82Zm2-6.81h21.71a2,2,0,0,1,2,2v4.81H5158V3768A2.006,2.006,0,0,1,5160,3766Z" transform="translate(-5158 -3766)"/>
</svg>
