<svg xmlns="http://www.w3.org/2000/svg" width="25" height="25" viewBox="0 0 25 25">
    <path fill="#323232" fill-rule="nonzero" d="M24.093 21.573c-.981-2.585-2.57-3.394-3.963-3.727-1.484-1.608-1.137-7.934-1.137-7.934.02-.107.036-.215.048-.324h.002S21.08 2.721 15.68.261c0 0-.972-.231-1.72-.055C13.448.08 12.946 0 12.478 0a5.19 5.19 0 0 0-.394.016A4.827 4.827 0 0 0 11.69 0c-.591 0-1.224.101-1.882.299l-.024.008-.024.008c-1.747.61-4.718 2.952-4.248 7.589a.777.777 0 0 0-.038.047c-.486.612-.413 1.446-.265 2.147.041 1.444.117 5.528-.275 7.572-.134.027-.266.054-.394.078-1.491.266-3.343.94-4.438 3.825-.185.49-.12 1.022.182 1.459C1.408 24.658 7.33 25 12.098 25c4.769 0 10.69-.342 11.813-1.969.302-.436.367-.968.182-1.458zM6.443 8.667c.293.02.58.02.867.01l-.004.01.364 1.915.397-1.985c.403-.05.798-.12 1.182-.214 1.65-.412 3.103-1.205 4.201-1.955a15.977 15.977 0 0 0 1.786-1.41c.209.583.795 2.043 1.776 3.176v1.35l.308-1.018.028.026c-.004.02-.004.037-.008.056 0 0 .021-.01.048-.02.15.144.31.275.474.397.025.212.001.527-.107.992-.364 1.568-.985 1.664-1.131 1.664-.02 0-.031-.002-.031-.002s-.079 1.47-1.43 3.054l-.003.038c-1.052 1.07-2.125 1.59-3.202 1.55-1.338-.056-2.396-.97-2.921-1.523a.277.277 0 0 1-.002-.029c-1.38-1.598-1.462-3.09-1.462-3.09s-.01.002-.032.002c-.08 0-.304-.039-.548-.324l-.284-.45a4.41 4.41 0 0 1-.297-.89c-.197-.848-.112-1.195.031-1.33zm5.694 13.893l-.743-.742c-5.604-.037-8.937-1.808-8.944-1.812.748-.727 1.58-.952 2.302-1.081 1.162-.207 3.985-.914 4.234-1.578.075-.2.103-.572.108-.99.712.533 1.663 1.038 2.808 1.088.063.003.126.005.188.005 1.034 0 2.041-.383 3.011-1.124.005.431.032.816.11 1.02.248.665 3.07 1.371 4.234 1.579.722.129 1.554.354 2.301 1.081-3.298 1.16-6.26 1.651-8.831 1.776l-.778.778zm10.801-.256v-.389c.011.03.025.052.036.082.041.108.017.21-.036.307z"/>
</svg>
