<svg xmlns="http://www.w3.org/2000/svg" width="20" height="21" viewBox="0 0 20 21">
  <defs>
    <style>
      .cls-1 {
        fill: #6D6D6D;
        fill-rule: evenodd;
      }
    </style>
  </defs>
  <path id="holiday.svg" class="cls-1" d="M2089.21,130.991h-1.41a0.5,0.5,0,0,0,0,1h1.41a1.7,1.7,0,0,1,1.86,1.7V136h-18.14v-2.314a1.765,1.765,0,0,1,1.93-1.7h1.34a0.5,0.5,0,0,0,0-1h-1.34a2.739,2.739,0,0,0-2.86,2.695v13.489a2.844,2.844,0,0,0,2.86,2.825h14.35a2.81,2.81,0,0,0,2.79-2.825V133.686A2.669,2.669,0,0,0,2089.21,130.991Zm0,18.076h-14.35a1.916,1.916,0,0,1-1.93-1.892V136.933h18.14v10.242A1.858,1.858,0,0,1,2089.21,149.067Zm-8.83-17.08h3.24a0.516,0.516,0,0,0,0-1h-3.24A0.516,0.516,0,0,0,2080.38,131.987ZM2085,129.5v4.009a0.5,0.5,0,1,0,.99,0V129.5A0.5,0.5,0,1,0,2085,129.5Zm-4,9.5h2v2h-2v-2Zm3,6h2v2h-2v-2Zm-6-3h2v2h-2v-2Zm0,3h2v2h-2v-2Zm3,0h2v2h-2v-2Zm-3-15.5v4.009a0.5,0.5,0,1,0,.99,0V129.5A0.5,0.5,0,1,0,2078,129.5Zm3,12.5h2v2h-2v-2Zm6,3h2v2h-2v-2Zm-12-3h2v2h-2v-2Zm0,3h2v2h-2v-2Zm3-6h2v2h-2v-2Zm11,5h-1v-1h1v1Zm-2-1v1h-1v-1h-1v-1h-1v-1h1v-1h1v-1h1v1h1v1h1v1h-1v1h-1Zm-3,1v-1h1v1h-1Zm0-5h1v1h-1v-1Zm5,0v1h-1v-1h1Z" transform="translate(-2072 -129)"/>
</svg>
