<svg xmlns="http://www.w3.org/2000/svg" width="119" height="20" viewBox="0 0 119 20">
  <defs>
    <style>
      .cls-1 {
        fill: #fff;
        fill-rule: evenodd;
      }
    </style>
  </defs>
  <path id="logo-hubbler.svg" class="cls-1" d="M576.076,959.341a8.341,8.341,0,0,0-4.346,1.231V956h-4.048V967.67A8.454,8.454,0,1,0,576.076,959.341Zm0,12.612a4.283,4.283,0,1,1,4.346-4.283A4.229,4.229,0,0,1,576.076,971.953Zm18.514-12.612a8.339,8.339,0,0,0-4.346,1.231V956H586.2V967.67a8.454,8.454,0,0,0,16.906,0A8.514,8.514,0,0,0,594.59,959.341Zm0,12.612a4.283,4.283,0,1,1,4.345-4.283A4.228,4.228,0,0,1,594.59,971.953Zm14.227-4.283V956h-4.048V967.67a8.424,8.424,0,0,0,8.453,8.33v-3.989A4.4,4.4,0,0,1,608.817,967.67Zm24.348,0v7.978h4.048V967.67a4.3,4.3,0,0,1,4.345-4.282v-4.047A8.372,8.372,0,0,0,633.165,967.67Zm-94.712-8.329a8.338,8.338,0,0,0-4.345,1.231V956H530V975.59h4.048v-7.92a4.346,4.346,0,0,1,8.691,0v7.92h4.048v-7.92A8.246,8.246,0,0,0,538.453,959.341Zm22.919,8.153a4.3,4.3,0,0,1-4.346,4.283,4.353,4.353,0,0,1-4.4-4.283v-7.919h-4.048v7.919a8.454,8.454,0,0,0,16.907,0v-7.919h-4.048v7.919h-0.06Zm61.435-8.153a8.33,8.33,0,1,0,7.619,11.908h-5.179a4.441,4.441,0,0,1-2.44.762A4.337,4.337,0,0,1,618.7,969.2h12.442a12.307,12.307,0,0,0,.119-1.467A8.436,8.436,0,0,0,622.807,959.341ZM618.7,966.2a4.4,4.4,0,0,1,8.215,0H618.7Zm24.883-9.8h0.834v2.639h0.476v-2.639h0.833V956h-2.143v0.411Zm4.941-.411-0.893,1.877L646.737,956h-0.476v3.05h0.476v-2.053l0.774,1.525h0.3l0.714-1.525v2.053H649V956h-0.477Z" transform="translate(-530 -956)"/>
</svg>
