<svg xmlns="http://www.w3.org/2000/svg" xmlns:xlink="http://www.w3.org/1999/xlink" width="32" height="32" viewBox="0 0 32 32">
    <defs>
        <path id="a" d="M27.936 25.573c-1.088-2.884-2.927-3.56-4.41-3.825-1.236-.224-2.777-.687-3.323-.989-.018-.25-.027-.757.023-1.586.03-.034.06-.063.09-.1l-.015-.014c.73-.986 1.08-1.913 1.237-2.54.472-.334.968-.987 1.26-2.25.168-.732.295-1.656-.227-2.318l-.038-.047c.467-4.637-2.486-6.98-4.22-7.59l-.025-.008-.023-.007a6.477 6.477 0 0 0-1.81-.294L16.442 4l-.013.003L16.396 4c-.138 0-.267.006-.392.016a4.752 4.752 0 0 0-.39-.016c-.586 0-1.215.1-1.869.299l-.024.007-.024.008c-1.735.61-4.687 2.953-4.22 7.59a.687.687 0 0 0-.038.046c-.522.663-.395 1.587-.226 2.319.292 1.262.786 1.915 1.26 2.25.155.622.503 1.536 1.22 2.515l.009.012c.04.056.07.109.113.165.047.794.038 1.289.017 1.55-.549.3-2.086.764-3.32.986-1.482.267-3.322.942-4.41 3.826a1.572 1.572 0 0 0 .181 1.459C5.4 28.658 11.282 29 16.02 29c4.738 0 10.62-.342 11.736-1.969.3-.436.365-.968.18-1.458zM11.525 15.66s-.012.002-.032.002c-.146 0-.762-.097-1.123-1.664-.281-1.218.013-1.411.23-1.411.1 0 .182.041.182.041l-.006-.048.051.048.49 1.532s-.329-4.3 1.971-4.63c0 0 2.442 2.537 5.476 3.086 0 0-.657-1.213-1.205-2.315 0 0 1.753 1.984 3.286 2.315 0 0 .233-.3.493-.794a9.286 9.286 0 0 1-.111.806s.084-.041.184-.041c.216 0 .51.193.228 1.411-.36 1.568-.978 1.664-1.123 1.664-.02 0-.031-.002-.031-.002s-.078 1.47-1.421 3.054l-.002.038c-1.046 1.07-2.112 1.59-3.182 1.55-1.33-.056-2.38-.97-2.902-1.523a.371.371 0 0 1-.001-.028c-1.371-1.599-1.452-3.091-1.452-3.091zm4.494 8.466c-1.856 0-3.52-.727-4.685-1.875.802-.274 1.478-.593 1.593-.903.075-.2.103-.572.108-.99.707.533 1.652 1.038 2.79 1.088.062.003.124.005.187.005 1.027 0 2.027-.383 2.99-1.124.005.431.033.816.11 1.02.114.31.79.63 1.595.904-1.167 1.15-2.831 1.875-4.688 1.875z"/>
    </defs>
    <g fill="none" fill-rule="nonzero">
        <use fill="#767373" xlink:href="#a"/>
        <use fill="#707070" xlink:href="#a"/>
    </g>
</svg>
