<svg xmlns="http://www.w3.org/2000/svg" xmlns:xlink="http://www.w3.org/1999/xlink" width="32" height="32" viewBox="0 0 32 32">
    <defs>
        <path id="a" d="M28.093 25.573c-1.095-2.884-2.946-3.56-4.438-3.826-1.245-.223-2.796-.686-3.345-.988-.018-.25-.028-.758.022-1.586.03-.034.061-.064.091-.1l-.015-.014c.735-.987 1.087-1.914 1.245-2.54.475-.335.974-.988 1.268-2.25.17-.732.297-1.656-.228-2.319l-.038-.046c.47-4.637-2.502-6.98-4.248-7.59l-.025-.008-.024-.007A6.568 6.568 0 0 0 16.478 4c-.14 0-.27.006-.395.016A4.83 4.83 0 0 0 15.69 4c-.59 0-1.224.1-1.882.299l-.024.007-.024.008c-1.747.61-4.718 2.953-4.248 7.59a.774.774 0 0 0-.038.046c-.526.662-.398 1.587-.228 2.319.294 1.262.792 1.915 1.268 2.25.157.621.507 1.536 1.229 2.514 0 .002.008.01.008.012.042.056.071.11.115.165.047.794.038 1.29.016 1.55-.552.3-2.099.764-3.342.987-1.491.266-3.343.941-4.437 3.825-.186.49-.12 1.022.181 1.459C5.41 28.658 11.33 29 16.098 29c4.769 0 10.69-.342 11.813-1.969.302-.436.367-.968.182-1.458zm-16.55-9.912c-.147 0-.767-.097-1.13-1.664-.284-1.218.012-1.411.23-1.411.1 0 .184.041.184.041-1.08-5.646 3.327-7.183 3.327-7.183a5.334 5.334 0 0 1 1.537-.247c.14 0 .271.006.392.02a3.47 3.47 0 0 1 .394-.02c.42 0 .93.065 1.536.247 0 0 4.407 1.537 3.327 7.183 0 0 .084-.041.185-.041.218 0 .514.193.23 1.411-.364 1.568-.985 1.664-1.131 1.664-.02 0-.031-.002-.031-.002s-.078 1.47-1.43 3.054l-.002.038c-1.053 1.07-2.126 1.59-3.203 1.55-1.338-.056-2.396-.97-2.921-1.523a.277.277 0 0 1-.002-.028c-1.38-1.6-1.462-3.091-1.462-3.091s-.01.002-.03.002zm4.555 12.143c-5.667 0-11.333-.603-10.876-1.807.913-2.408 2.367-2.865 3.53-3.072 1.162-.208 3.985-.914 4.234-1.579.075-.2.103-.571.108-.99.712.534 1.663 1.039 2.808 1.089.063.003.126.005.188.005 1.034 0 2.04-.383 3.011-1.124.005.43.032.816.11 1.02.248.665 3.071 1.371 4.234 1.579 1.163.207 2.617.664 3.53 3.072.456 1.204-5.21 1.807-10.877 1.807z"/>
    </defs>
    <g fill="none" fill-rule="nonzero">
        <use fill="#767373" xlink:href="#a"/>
        <use fill="#707070" xlink:href="#a"/>
    </g>
</svg>
