<svg xmlns="http://www.w3.org/2000/svg" width="20" height="17" viewBox="0 0 20 17">
  <defs>
    <style>
      .cls-1 {
        fill: #37ADE7;
        fill-rule: evenodd;
      }
    </style>
  </defs>
  <path id="reimbursement-active.svg" class="cls-1" d="M929.154,354.64a0.73,0.73,0,1,1-.769.729A0.749,0.749,0,0,1,929.154,354.64Zm3.077-1.458h-0.769v-2.916a1.5,1.5,0,0,0-1.539-1.458h-1.538v-2.414a1.5,1.5,0,0,0-1.536-1.459,1.641,1.641,0,0,0-.445.062L914.1,348.5a1.471,1.471,0,0,0-1.1,1.4v10.579a1.5,1.5,0,0,0,1.538,1.458h15.385a1.5,1.5,0,0,0,1.539-1.458v-2.916h0.769a0.75,0.75,0,0,0,.769-0.729v-2.916A0.749,0.749,0,0,0,932.231,353.182Zm-5.606-7.487a0.823,0.823,0,0,1,.224-0.031,0.751,0.751,0,0,1,.766.73v2.414H915.677Zm5.606,11.132h-4.616v-2.916h4.616v2.916Z" transform="translate(-913 -344.938)"/>
</svg>
