<?xml version="1.0"?>
<svg xmlns="http://www.w3.org/2000/svg" xmlns:xlink="http://www.w3.org/1999/xlink" version="1.1" id="Capa_1" x="0px" y="0px" width="512px" height="512px" viewBox="0 0 44.751 44.751" style="enable-background:new 0 0 44.751 44.751;" xml:space="preserve"><g><g>
	<g>
		<path d="M22.373,13.518c-4.885,0-8.859,3.974-8.859,8.858c0,4.884,3.976,8.856,8.859,8.856c4.883,0,8.857-3.973,8.857-8.856    C31.232,17.492,27.257,13.518,22.373,13.518z" data-original="#000000" class="active-path" data-old_color="#000000" fill="#767373"/>
		<path d="M42.648,18.928l-4.238-0.343c-0.412-1.744-1.102-3.384-2.021-4.866l2.76-3.242c0.818-0.821,1.104-1.866,0.635-2.337    l-3.176-3.173c-0.469-0.471-1.516-0.188-2.334,0.635L31.031,8.36c-1.48-0.919-3.121-1.606-4.865-2.02L25.822,2.1    c0-1.159-0.539-2.1-1.203-2.1h-4.486c-0.664,0-1.202,0.938-1.202,2.1l-0.345,4.24c-1.743,0.412-3.385,1.101-4.864,2.02    l-3.244-2.758c-0.82-0.821-1.865-1.104-2.336-0.635L4.967,8.142C4.495,8.611,4.78,9.656,5.603,10.477l2.758,3.242    c-0.918,1.482-1.605,3.122-2.02,4.866l-4.238,0.343c-1.16,0-2.101,0.539-2.101,1.203v4.488c0,0.662,0.938,1.203,2.101,1.203    l4.238,0.345c0.414,1.743,1.102,3.383,2.02,4.864l-2.758,3.242c-0.82,0.82-1.105,1.865-0.635,2.334l3.174,3.176    c0.471,0.472,1.516,0.187,2.336-0.635l3.244-2.758c1.479,0.92,3.121,1.607,4.864,2.02l0.345,4.24c0,1.158,0.539,2.101,1.202,2.101    h4.486c0.664,0,1.203-0.939,1.203-2.101l0.344-4.24c1.744-0.411,3.385-1.1,4.865-2.02l3.24,2.758    c0.82,0.818,1.867,1.104,2.336,0.635l3.176-3.174c0.471-0.471,0.188-1.516-0.635-2.336l-2.76-3.242    c0.92-1.481,1.607-3.121,2.021-4.864l4.238-0.345c1.16,0,2.102-0.541,2.102-1.203v-4.488    C44.748,19.467,43.808,18.928,42.648,18.928z M22.373,33.673c-6.229,0-11.295-5.068-11.295-11.296    c0-6.229,5.065-11.296,11.295-11.296c6.229,0,11.295,5.066,11.295,11.296C33.667,28.604,28.601,33.673,22.373,33.673z" data-original="#000000" class="active-path" data-old_color="#000000" fill="#767373"/>
	</g>
</g></g> </svg>
