<svg xmlns="http://www.w3.org/2000/svg" width="20" height="22" viewBox="0 0 20 22">
    <g fill="none" fill-rule="evenodd">
        <path fill="#FFF" fill-rule="nonzero" d="M9.563 18.154H2.334a.782.782 0 0 1-.615-.293.804.804 0 0 1-.163-.674c.798-3.834 4.18-6.635 8.086-6.73a5.278 5.278 0 0 0 .41 0c1.71.041 3.145.434 4.534 1.432a.77.77 0 0 0 .898-1.249c-.835-.6-1.547-.909-2.504-1.224a5.226 5.226 0 0 0 2.097-4.185A5.237 5.237 0 0 0 9.847 0a5.237 5.237 0 0 0-5.232 5.23c0 1.712.827 3.235 2.102 4.19a9.996 9.996 0 0 0-3.224 1.772A10.036 10.036 0 0 0 .05 16.874a2.336 2.336 0 0 0 2.284 2.818h7.229a.77.77 0 1 0 0-1.538zM6.153 5.23a3.696 3.696 0 0 1 3.693-3.693 3.696 3.696 0 0 1 3.692 3.693 3.697 3.697 0 0 1-3.505 3.687 9.794 9.794 0 0 0-.373 0 3.697 3.697 0 0 1-3.506-3.687z"/>
        <g stroke="#FFF" stroke-width="1.2" transform="translate(12 13.5)">
            <circle cx="3.5" cy="3.5" r="3.5"/>
            <path d="M6.264.875L1.313 5.826"/>
        </g>
    </g>
</svg>
