<?xml version="1.0" encoding="utf-8"?>
<!-- Generator: Adobe Illustrator 19.0.1, SVG Export Plug-In . SVG Version: 6.00 Build 0)  -->
<!DOCTYPE svg PUBLIC "-//W3C//DTD SVG 1.1//EN" "http://www.w3.org/Graphics/SVG/1.1/DTD/svg11.dtd">
<svg version="1.1" id="Layer_1" xmlns="http://www.w3.org/2000/svg" xmlns:xlink="http://www.w3.org/1999/xlink" x="0px" y="0px"
	 viewBox="0 0 67.3 67.3" style="enable-background:new 0 0 67.3 67.3;" xml:space="preserve">
<style type="text/css">
	.st0{fill:#323232;}
</style>
<g>
	<path class="st0" d="M38.4,34.9c0.1-0.1,0.1-0.1,0.2-0.2l0,0c3.6-3.4,5-10.8,5-10.9C44.6,13.5,38,8.3,34.1,7l-0.1,0L34,7
		c-1.5-0.4-2.9-0.7-4.2-0.7c-0.3,0-0.6,0-0.9,0c-0.3,0-0.6,0-0.9,0c-1.3,0-2.7,0.2-4.2,0.7l-0.1,0l-0.1,0
		c-3.9,1.4-10.5,6.5-9.4,16.8c0,0,1.6,7.9,4.9,10.8v0c0,0,0,0,0,0c0.1,0.1,0.2,0.2,0.3,0.4c0.1,1.8,0.1,2.9,0,3.4
		c-1.2,0.7-4.7,1.7-7.4,2.2c-3.3,0.6-7.4,7.1-9.8,13.5c-0.4,1.1-0.3,2.3,0.4,3.2C5.3,61,18.4,61.7,29,61.7c3.6,0,11.2-0.4,11.2-0.4
		v-2.7c0,0-7.4,0.4-11.2,0.4c-12.6,0-25.1-1.3-24.1-4c2-5.3,5.2-11.3,7.8-11.8c2.6-0.5,8.8-2,9.4-3.5c0.2-0.4,0.2-1.3,0.2-2.2
		c0.9,0.7,1.9,1.3,3.1,1.7c3.5,1.2,6.9,0.1,6.9,0.1c1.1-0.4,2.2-1,3.3-1.9c0,1,0.1,1.8,0.2,2.3c0.3,0.8,4.3,2.2,4.3,2.2l0-2.8
		c0,0-1.2-0.4-1.9-0.8C38.3,37.9,38.3,36.8,38.4,34.9z M35.8,33.9C35.8,33.9,35.8,34,35.8,33.9c-2.3,2.5-4.7,3.6-7.1,3.5
		c-3-0.1-5.3-2.1-6.5-3.4c0,0,0,0,0-0.1c-4.3-4-4.9-8.6-4.9-8.6c-2.4-12.5,7.4-15.9,7.4-15.9C26,9.1,27.2,9,28.1,9
		c0.3,0,0.6,0,0.9,0c0.3,0,0.6,0,0.9,0c0.9,0,2.1,0.1,3.4,0.5c0,0,9.8,3.4,7.4,15.9C40.6,25.4,39.2,30.3,35.8,33.9z"/>
	<path class="st0" d="M64.5,32.9H43.3c-0.9,0-1.6,0.7-1.6,1.6v27c0,0.9,0.7,1.6,1.6,1.6h21.3c0.9,0,1.6-0.7,1.6-1.6v-27
		C66.1,33.6,65.4,32.9,64.5,32.9z M63.7,60.7H44.1V35.3h19.7V60.7z"/>
	<rect x="47.7" y="39.5" class="st0" width="12.4" height="1.6"/>
	<rect x="57.8" y="44.6" class="st0" width="2.2" height="1.6"/>
	<rect x="57.8" y="49.7" class="st0" width="2.2" height="1.6"/>
	<rect x="57.8" y="54.8" class="st0" width="2.2" height="1.6"/>
	<rect x="47.7" y="44.6" class="st0" width="8.5" height="1.6"/>
	<rect x="47.7" y="49.7" class="st0" width="8.5" height="1.6"/>
	<rect x="47.7" y="54.8" class="st0" width="8.5" height="1.6"/>
</g>
</svg>
