<svg xmlns="http://www.w3.org/2000/svg" width="14" height="18" viewBox="0 0 14 18">
    <path fill="#FFF" fill-rule="nonzero" d="M9.455 3.253h-8.08C.614 3.253 0 3.886 0 4.666v11.921C0 17.367.616 18 1.374 18h8.081c.759 0 1.375-.633 1.375-1.413V4.666c-.004-.78-.62-1.413-1.375-1.413zm-.003.988a.42.42 0 0 1 .413.425v11.917a.42.42 0 0 1-.413.425H1.37a.42.42 0 0 1-.413-.425V4.666a.42.42 0 0 1 .413-.425h8.08zM12.626 0C13.384 0 14 .633 14 1.413v11.921c0 .78-.616 1.413-1.374 1.413a.485.485 0 0 1-.48-.494c0-.274.213-.494.48-.494a.42.42 0 0 0 .413-.425V1.413a.42.42 0 0 0-.413-.425H4.545a.42.42 0 0 0-.413.425.485.485 0 0 1-.48.494.485.485 0 0 1-.482-.494C3.17.633 3.786 0 4.545 0z"/>
</svg>
