<svg xmlns="http://www.w3.org/2000/svg" width="22" height="22" viewBox="0 0 22 22">
    <g fill="none" fill-rule="nonzero">
        <path fill="#FFF" d="M8.117 18.12H2.348a.78.78 0 0 1-.614-.292.802.802 0 0 1-.163-.672c.797-3.828 4.173-6.623 8.072-6.718a5.245 5.245 0 0 0 .407 0 8.445 8.445 0 0 1 5.356 2.084.768.768 0 1 0 1.011-1.156 9.973 9.973 0 0 0-3.446-1.965 5.217 5.217 0 0 0 2.096-4.18A5.227 5.227 0 0 0 9.847 0a5.227 5.227 0 0 0-5.222 5.221c0 1.709.825 3.228 2.097 4.181a9.979 9.979 0 0 0-3.217 1.769 10.017 10.017 0 0 0-3.437 5.672 2.332 2.332 0 0 0 2.28 2.813h5.769a.768.768 0 1 0 0-1.536zM6.16 5.221a3.69 3.69 0 0 1 3.685-3.685 3.69 3.69 0 0 1 3.686 3.685 3.69 3.69 0 0 1-3.5 3.681 9.68 9.68 0 0 0-.371 0 3.69 3.69 0 0 1-3.5-3.68z"/>
        <path stroke="#FFF" stroke-linecap="round" stroke-linejoin="round" stroke-width="1.5" d="M11.684 18.379l2.881 2.586 6.12-7"/>
    </g>
</svg>
