<svg xmlns="http://www.w3.org/2000/svg" width="20" height="21" viewBox="0 0 20 21">
  <defs>
    <style>
      .cls-1 {
        fill: #37ADE7;
        fill-rule: evenodd;
      }
    </style>
  </defs>
  <path id="working_days-active.svg" class="cls-1" d="M2109,176a0.7,0.7,0,0,1-.67-0.511,0.484,0.484,0,0,1,.47-0.5h1.41a2.669,2.669,0,0,1,2.79,2.695v13.489a2.81,2.81,0,0,1-2.79,2.825h-14.35a2.844,2.844,0,0,1-2.86-2.825V177.686a2.739,2.739,0,0,1,2.86-2.695h1.34a0.5,0.5,0,0,1,0,1L2099,176v2h1v-2h6v2h1v-2h2Zm-7,2h2v1h-2v-1Zm3,12-2,2-2-2,1-10h2Zm-0.38-14.013h-3.24a0.516,0.516,0,0,1,0-1h3.24A0.516,0.516,0,0,1,2104.62,175.987ZM2099,176v-2.5a0.5,0.5,0,1,1,.99,0L2100,176h-1Zm7.5-3a0.5,0.5,0,0,1,.5.5V176h-1v-2.5A0.5,0.5,0,0,1,2106.5,173Z" transform="translate(-2093 -173)"/>
</svg>
