<svg xmlns="http://www.w3.org/2000/svg" width="20" height="21" viewBox="0 0 20 21">
  <defs>
    <style>
      .cls-1 {
        fill: #6D6D6D;
        fill-rule: evenodd;
      }
    </style>
  </defs>
  <path id="working-days.svg" class="cls-1" d="M2089.21,194h-14.35a2.844,2.844,0,0,1-2.86-2.825V177.686a2.739,2.739,0,0,1,2.86-2.695h1.34a0.5,0.5,0,0,1,0,1h-1.34a1.765,1.765,0,0,0-1.93,1.7v13.489a1.916,1.916,0,0,0,1.93,1.892h14.35a1.858,1.858,0,0,0,1.86-1.892V177.686a1.7,1.7,0,0,0-1.86-1.7h-1.41a0.5,0.5,0,0,1,0-1h1.41a2.669,2.669,0,0,1,2.79,2.695v13.489A2.81,2.81,0,0,1,2089.21,194Zm-3.71-15.989a0.5,0.5,0,0,1-.5-0.5V173.5a0.5,0.5,0,1,1,.99,0v4.009A0.5,0.5,0,0,1,2085.5,178.011ZM2081,178h2v1h-2v-1Zm3,12-2,2-2-2,1-10h2Zm-0.38-14.013h-3.24a0.516,0.516,0,0,1,0-1h3.24A0.516,0.516,0,0,1,2083.62,175.987Zm-5.12,2.024a0.5,0.5,0,0,1-.5-0.5V173.5a0.5,0.5,0,1,1,.99,0v4.009A0.5,0.5,0,0,1,2078.5,178.011Z" transform="translate(-2072 -173)"/>
</svg>
